<svg width="101" height="80" fill="none" xmlns="http://www.w3.org/2000/svg"><mask id="a" style="mask-type:alpha" maskUnits="userSpaceOnUse" x="0" y="0" width="101" height="80"><path d="M30.207 19.603c5.508 0 9.974-4.388 9.974-9.801C40.18 4.388 35.716 0 30.208 0c-5.508 0-9.974 4.388-9.974 9.802 0 5.413 4.465 9.801 9.973 9.801ZM70.243 19.603c5.508 0 9.973-4.388 9.973-9.801C80.216 4.388 75.75 0 70.243 0c-5.508 0-9.973 4.388-9.973 9.802 0 5.413 4.465 9.801 9.973 9.801ZM95.504 78.509a10.188 10.188 0 0 1-6.782 1.171 10.076 10.076 0 0 1-5.954-3.4L70.423 55.258l-.735-1.249a7.745 7.745 0 0 0-.868-1.192 7.351 7.351 0 0 0-4.294-2.303 7.424 7.424 0 0 0-4.811.871l-.152.086a7.204 7.204 0 0 0-3.296 4.015 7.064 7.064 0 0 0 .295 5.151c.099.223.21.441.332.653l2.658 4.526A9.585 9.585 0 0 1 60 73.02a9.944 9.944 0 0 1-2.032 3.555 10.149 10.149 0 0 1-3.308 2.461 10.323 10.323 0 0 1-8.12.25 10.181 10.181 0 0 1-3.458-2.25 9.975 9.975 0 0 1-2.255-3.424 9.835 9.835 0 0 1 .34-7.976l.035-.069 2.553-4.342c.081-.149.169-.292.239-.435a7.06 7.06 0 0 0 .412-5.235 7.196 7.196 0 0 0-3.327-4.109h-.04a7.416 7.416 0 0 0-5.538-.716 7.343 7.343 0 0 0-2.554 1.24 7.206 7.206 0 0 0-1.876 2.106l-.798 1.358-11.53 19.488a10.024 10.024 0 0 1-6.098 4.6 10.199 10.199 0 0 1-7.623-.985 9.896 9.896 0 0 1-4.68-5.994 9.723 9.723 0 0 1 1.002-7.491l20.168-34.331a9.875 9.875 0 0 1 5.572-4.446 10.77 10.77 0 0 1 1.848-.418 10.155 10.155 0 0 1 6.367 1.228 9.935 9.935 0 0 1 3.676 3.618l11.337 19.3 10.923-18.618.42-.716a9.928 9.928 0 0 1 3.655-3.608 10.148 10.148 0 0 1 5-1.33h.047c.417 0 .834.028 1.248.08.186.023.38.052.583.086l.519.109c1.321.314 2.564.89 3.653 1.691 1.088.802 1.999 1.813 2.677 2.972l.42.716 19.747 33.615a9.712 9.712 0 0 1 1.005 7.51 9.805 9.805 0 0 1-1.744 3.46 9.993 9.993 0 0 1-2.962 2.538Z" fill="#51A2F2"/></mask><g mask="url(#a)"><path fill="url(#b)" d="M-40-10h180V90H-40z"/></g><defs><linearGradient id="b" x1="-40" y1="90" x2="126.688" y2="-28.695" gradientUnits="userSpaceOnUse"><stop stop-color="#50F2C4"/><stop offset=".397" stop-color="#26D0E3"/><stop offset="1" stop-color="#757AFF"/></linearGradient></defs></svg>