<svg width="39" height="24" fill="none" xmlns="http://www.w3.org/2000/svg"><path fill-rule="evenodd" clip-rule="evenodd" d="M37.699 2.44c.267-.88 0-1.528-1.278-1.528H32.2c-1.074 0-1.57.56-1.838 1.177 0 0-2.146 5.152-5.186 8.498-.984.97-1.43 1.279-1.968 1.279-.268 0-.672-.308-.672-1.19V2.44c0-1.057-.295-1.528-1.19-1.528h-6.636c-.67 0-1.074.49-1.074.956 0 1.001 1.521 1.233 1.677 4.051v6.122c0 1.343-.246 1.587-.783 1.587-1.43 0-4.91-5.177-6.977-11.1C7.154 1.377 6.75.913 5.67.913H1.447C.24.912 0 1.472 0 2.09c0 1.1 1.43 6.56 6.664 13.784 3.488 4.933 8.4 7.607 12.874 7.607 2.683 0 3.014-.593 3.014-1.617v-3.728c0-1.188.254-1.425 1.104-1.425.627 0 1.7.31 4.204 2.687 2.862 2.82 3.333 4.083 4.944 4.083h4.22c1.206 0 1.81-.593 1.463-1.767-.383-1.167-1.75-2.86-3.561-4.871-.984-1.145-2.46-2.378-2.908-2.995-.626-.792-.447-1.145 0-1.85 0 0 5.144-7.134 5.68-9.557h.001Z" fill="#D4E8FC"/></svg>