<svg width="30" height="30" viewBox="0 0 30 30" fill="none" xmlns="http://www.w3.org/2000/svg">
<path d="M2 14.0833C1.30964 14.0833 0.75 14.643 0.75 15.3333C0.75 16.0237 1.30964 16.5833 2 16.5833V14.0833ZM15.3333 16.5833C16.0237 16.5833 16.5833 16.0237 16.5833 15.3333C16.5833 14.643 16.0237 14.0833 15.3333 14.0833V16.5833ZM15.332 14.0833C14.6417 14.0833 14.082 14.643 14.082 15.3333C14.082 16.0237 14.6417 16.5833 15.332 16.5833V14.0833ZM28.6654 16.5833C29.3557 16.5833 29.9154 16.0237 29.9154 15.3333C29.9154 14.643 29.3557 14.0833 28.6654 14.0833V16.5833ZM16.5833 15.3335C16.5833 14.6431 16.0237 14.0835 15.3333 14.0835C14.643 14.0835 14.0833 14.6431 14.0833 15.3335H16.5833ZM14.0833 28.6668C14.0833 29.3572 14.643 29.9168 15.3333 29.9168C16.0237 29.9168 16.5833 29.3572 16.5833 28.6668H14.0833ZM14.0833 15.3333C14.0833 16.0237 14.643 16.5833 15.3333 16.5833C16.0237 16.5833 16.5833 16.0237 16.5833 15.3333H14.0833ZM16.5833 2C16.5833 1.30964 16.0237 0.75 15.3333 0.75C14.643 0.75 14.0833 1.30964 14.0833 2H16.5833ZM2 16.5833H15.3333V14.0833H2V16.5833ZM15.332 16.5833H28.6654V14.0833H15.332V16.5833ZM15.3333 15.3335H14.0833C14.0833 15.3335 14.0833 15.3335 14.0833 15.3335C14.0833 15.3335 14.0833 15.3335 14.0833 15.3335C14.0833 15.3335 14.0833 15.3335 14.0833 15.3335C14.0833 15.3335 14.0833 15.3335 14.0833 15.3335C14.0833 15.3335 14.0833 15.3335 14.0833 15.3335C14.0833 15.3335 14.0833 15.3335 14.0833 15.3335C14.0833 15.3335 14.0833 15.3335 14.0833 15.3335C14.0833 15.3336 14.0833 15.3336 14.0833 15.3336C14.0833 15.3336 14.0833 15.3336 14.0833 15.3336C14.0833 15.3336 14.0833 15.3336 14.0833 15.3336C14.0833 15.3336 14.0833 15.3337 14.0833 15.3337C14.0833 15.3337 14.0833 15.3337 14.0833 15.3337C14.0833 15.3337 14.0833 15.3337 14.0833 15.3338C14.0833 15.3338 14.0833 15.3338 14.0833 15.3338C14.0833 15.3339 14.0833 15.3339 14.0833 15.3339C14.0833 15.3339 14.0833 15.334 14.0833 15.334C14.0833 15.334 14.0833 15.334 14.0833 15.3341C14.0833 15.3341 14.0833 15.3341 14.0833 15.3342C14.0833 15.3342 14.0833 15.3343 14.0833 15.3343C14.0833 15.3343 14.0833 15.3344 14.0833 15.3344C14.0833 15.3345 14.0833 15.3345 14.0833 15.3346C14.0833 15.3346 14.0833 15.3347 14.0833 15.3347C14.0833 15.3348 14.0833 15.3348 14.0833 15.3349C14.0833 15.3349 14.0833 15.335 14.0833 15.335C14.0833 15.3351 14.0833 15.3352 14.0833 15.3352C14.0833 15.3353 14.0833 15.3354 14.0833 15.3355C14.0833 15.3355 14.0833 15.3356 14.0833 15.3357C14.0833 15.3358 14.0833 15.3358 14.0833 15.3359C14.0833 15.336 14.0833 15.3361 14.0833 15.3362C14.0833 15.3363 14.0833 15.3364 14.0833 15.3365C14.0833 15.3366 14.0833 15.3366 14.0833 15.3368C14.0833 15.3369 14.0833 15.337 14.0833 15.3371C14.0833 15.3372 14.0833 15.3373 14.0833 15.3374C14.0833 15.3375 14.0833 15.3376 14.0833 15.3378C14.0833 15.3379 14.0833 15.338 14.0833 15.3381C14.0833 15.3383 14.0833 15.3384 14.0833 15.3385C14.0833 15.3387 14.0833 15.3388 14.0833 15.3389C14.0833 15.3391 14.0833 15.3392 14.0833 15.3394C14.0833 15.3395 14.0833 15.3397 14.0833 15.3399C14.0833 15.34 14.0833 15.3402 14.0833 15.3403C14.0833 15.3405 14.0833 15.3407 14.0833 15.3409C14.0833 15.341 14.0833 15.3412 14.0833 15.3414C14.0833 15.3416 14.0833 15.3418 14.0833 15.342C14.0833 15.3422 14.0833 15.3423 14.0833 15.3425C14.0833 15.3427 14.0833 15.343 14.0833 15.3432C14.0833 15.3434 14.0833 15.3436 14.0833 15.3438C14.0833 15.344 14.0833 15.3443 14.0833 15.3445C14.0833 15.3447 14.0833 15.3449 14.0833 15.3452C14.0833 15.3454 14.0833 15.3457 14.0833 15.3459C14.0833 15.3462 14.0833 15.3464 14.0833 15.3467C14.0833 15.3469 14.0833 15.3472 14.0833 15.3475C14.0833 15.3477 14.0833 15.348 14.0833 15.3483C14.0833 15.3486 14.0833 15.3488 14.0833 15.3491C14.0833 15.3494 14.0833 15.3497 14.0833 15.35C14.0833 15.3503 14.0833 15.3506 14.0833 15.3509C14.0833 15.3513 14.0833 15.3516 14.0833 15.3519C14.0833 15.3522 14.0833 15.3525 14.0833 15.3529C14.0833 15.3532 14.0833 15.3536 14.0833 15.3539C14.0833 15.3542 14.0833 15.3546 14.0833 15.355C14.0833 15.3553 14.0833 15.3557 14.0833 15.356C14.0833 15.3564 14.0833 15.3568 14.0833 15.3572C14.0833 15.3576 14.0833 15.3579 14.0833 15.3583C14.0833 15.3587 14.0833 15.3591 14.0833 15.3595C14.0833 15.3599 14.0833 15.3604 14.0833 15.3608C14.0833 15.3612 14.0833 15.3616 14.0833 15.3621C14.0833 15.3625 14.0833 15.3629 14.0833 15.3634C14.0833 15.3638 14.0833 15.3643 14.0833 15.3647C14.0833 15.3652 14.0833 15.3657 14.0833 15.3661C14.0833 15.3666 14.0833 15.3671 14.0833 15.3676C14.0833 15.3681 14.0833 15.3686 14.0833 15.3691C14.0833 15.3696 14.0833 15.3701 14.0833 15.3706C14.0833 15.3711 14.0833 15.3716 14.0833 15.3721C14.0833 15.3727 14.0833 15.3732 14.0833 15.3738C14.0833 15.3743 14.0833 15.3748 14.0833 15.3754C14.0833 15.376 14.0833 15.3765 14.0833 15.3771C14.0833 15.3777 14.0833 15.3783 14.0833 15.3788C14.0833 15.3794 14.0833 15.38 14.0833 15.3806C14.0833 15.3812 14.0833 15.3819 14.0833 15.3825C14.0833 15.3831 14.0833 15.3837 14.0833 15.3844C14.0833 15.385 14.0833 15.3856 14.0833 15.3863C14.0833 15.3869 14.0833 15.3876 14.0833 15.3883C14.0833 15.3889 14.0833 15.3896 14.0833 15.3903C14.0833 15.391 14.0833 15.3917 14.0833 15.3924C14.0833 15.3931 14.0833 15.3938 14.0833 15.3945C14.0833 15.3952 14.0833 15.3959 14.0833 15.3967C14.0833 15.3974 14.0833 15.3982 14.0833 15.3989C14.0833 15.3997 14.0833 15.4004 14.0833 15.4012C14.0833 15.402 14.0833 15.4027 14.0833 15.4035C14.0833 15.4043 14.0833 15.4051 14.0833 15.4059C14.0833 15.4067 14.0833 15.4075 14.0833 15.4084C14.0833 15.4092 14.0833 15.41 14.0833 15.4109C14.0833 15.4117 14.0833 15.4125 14.0833 15.4134C14.0833 15.4143 14.0833 15.4151 14.0833 15.416C14.0833 15.4169 14.0833 15.4178 14.0833 15.4187C14.0833 15.4196 14.0833 15.4205 14.0833 15.4214C14.0833 15.4223 14.0833 15.4232 14.0833 15.4242C14.0833 15.4251 14.0833 15.426 14.0833 15.427C14.0833 15.4279 14.0833 15.4289 14.0833 15.4299C14.0833 15.4309 14.0833 15.4318 14.0833 15.4328C14.0833 15.4338 14.0833 15.4348 14.0833 15.4358C14.0833 15.4369 14.0833 15.4379 14.0833 15.4389C14.0833 15.44 14.0833 15.441 14.0833 15.442C14.0833 15.4431 14.0833 15.4442 14.0833 15.4452C14.0833 15.4463 14.0833 15.4474 14.0833 15.4485C14.0833 15.4496 14.0833 15.4507 14.0833 15.4518C14.0833 15.4529 14.0833 15.4541 14.0833 15.4552C14.0833 15.4563 14.0833 15.4575 14.0833 15.4586C14.0833 15.4598 14.0833 15.461 14.0833 15.4621C14.0833 15.4633 14.0833 15.4645 14.0833 15.4657C14.0833 15.4669 14.0833 15.4681 14.0833 15.4694C14.0833 15.4706 14.0833 15.4718 14.0833 15.4731C14.0833 15.4743 14.0833 15.4756 14.0833 15.4768C14.0833 15.4781 14.0833 15.4794 14.0833 15.4807C14.0833 15.482 14.0833 15.4833 14.0833 15.4846C14.0833 15.4859 14.0833 15.4872 14.0833 15.4886C14.0833 15.4899 14.0833 15.4912 14.0833 15.4926C14.0833 15.494 14.0833 15.4953 14.0833 15.4967C14.0833 15.4981 14.0833 15.4995 14.0833 15.5009C14.0833 15.5023 14.0833 15.5037 14.0833 15.5052C14.0833 15.5066 14.0833 15.508 14.0833 15.5095C14.0833 15.5109 14.0833 15.5124 14.0833 15.5139C14.0833 15.5154 14.0833 15.5169 14.0833 15.5184C14.0833 15.5199 14.0833 15.5214 14.0833 15.5229C14.0833 15.5244 14.0833 15.526 14.0833 15.5275C14.0833 15.5291 14.0833 15.5306 14.0833 15.5322C14.0833 15.5338 14.0833 15.5354 14.0833 15.537C14.0833 15.5386 14.0833 15.5402 14.0833 15.5418C14.0833 15.5435 14.0833 15.5451 14.0833 15.5468C14.0833 15.5484 14.0833 15.5501 14.0833 15.5517C14.0833 15.5534 14.0833 15.5551 14.0833 15.5568C14.0833 15.5585 14.0833 15.5602 14.0833 15.562C14.0833 15.5637 14.0833 15.5655 14.0833 15.5672C14.0833 15.569 14.0833 15.5707 14.0833 15.5725C14.0833 15.5743 14.0833 15.5761 14.0833 15.5779C14.0833 15.5797 14.0833 15.5815 14.0833 15.5834C14.0833 15.5852 14.0833 15.5871 14.0833 15.5889C14.0833 15.5908 14.0833 15.5927 14.0833 15.5946C14.0833 15.5965 14.0833 15.5984 14.0833 15.6003C14.0833 15.6022 14.0833 15.6041 14.0833 15.6061C14.0833 15.608 14.0833 15.61 14.0833 15.612C14.0833 15.6139 14.0833 15.6159 14.0833 15.6179C14.0833 15.6199 14.0833 15.622 14.0833 15.624C14.0833 15.626 14.0833 15.6281 14.0833 15.6301C14.0833 15.6322 14.0833 15.6343 14.0833 15.6363C14.0833 15.6384 14.0833 15.6405 14.0833 15.6427C14.0833 15.6448 14.0833 15.6469 14.0833 15.6491C14.0833 15.6512 14.0833 15.6534 14.0833 15.6555C14.0833 15.6577 14.0833 15.6599 14.0833 15.6621C14.0833 15.6643 14.0833 15.6665 14.0833 15.6688C14.0833 15.671 14.0833 15.6733 14.0833 15.6755C14.0833 15.6778 14.0833 15.6801 14.0833 15.6824C14.0833 15.6847 14.0833 15.687 14.0833 15.6893C14.0833 15.6916 14.0833 15.694 14.0833 15.6963C14.0833 15.6987 14.0833 15.701 14.0833 15.7034C14.0833 15.7058 14.0833 15.7082 14.0833 15.7106C14.0833 15.7131 14.0833 15.7155 14.0833 15.7179C14.0833 15.7204 14.0833 15.7228 14.0833 15.7253C14.0833 15.7278 14.0833 15.7303 14.0833 15.7328C14.0833 15.7353 14.0833 15.7379 14.0833 15.7404C14.0833 15.7429 14.0833 15.7455 14.0833 15.7481C14.0833 15.7506 14.0833 15.7532 14.0833 15.7558C14.0833 15.7585 14.0833 15.7611 14.0833 15.7637C14.0833 15.7664 14.0833 15.769 14.0833 15.7717C14.0833 15.7744 14.0833 15.777 14.0833 15.7797C14.0833 15.7825 14.0833 15.7852 14.0833 15.7879C14.0833 15.7906 14.0833 15.7934 14.0833 15.7962C14.0833 15.7989 14.0833 15.8017 14.0833 15.8045C14.0833 15.8073 14.0833 15.8102 14.0833 15.813C14.0833 15.8158 14.0833 15.8187 14.0833 15.8216C14.0833 15.8244 14.0833 15.8273 14.0833 15.8302C14.0833 15.8331 14.0833 15.836 14.0833 15.839C14.0833 15.8419 14.0833 15.8449 14.0833 15.8479C14.0833 15.8508 14.0833 15.8538 14.0833 15.8568C14.0833 15.8598 14.0833 15.8629 14.0833 15.8659C14.0833 15.8689 14.0833 15.872 14.0833 15.8751C14.0833 15.8782 14.0833 15.8813 14.0833 15.8844C14.0833 15.8875 14.0833 15.8906 14.0833 15.8938C14.0833 15.8969 14.0833 15.9001 14.0833 15.9033C14.0833 15.9064 14.0833 15.9096 14.0833 15.9129C14.0833 15.9161 14.0833 15.9193 14.0833 15.9226C14.0833 15.9258 14.0833 15.9291 14.0833 15.9324C14.0833 15.9357 14.0833 15.939 14.0833 15.9423C14.0833 15.9456 14.0833 15.949 14.0833 15.9523C14.0833 15.9557 14.0833 15.9591 14.0833 15.9625C14.0833 15.9659 14.0833 15.9693 14.0833 15.9727C14.0833 15.9762 14.0833 15.9796 14.0833 15.9831C14.0833 15.9866 14.0833 15.9901 14.0833 15.9936C14.0833 15.9971 14.0833 16.0006 14.0833 16.0042C14.0833 16.0077 14.0833 16.0113 14.0833 16.0149C14.0833 16.0185 14.0833 16.0221 14.0833 16.0257C14.0833 16.0293 14.0833 16.033 14.0833 16.0366C14.0833 16.0403 14.0833 16.044 14.0833 16.0477C14.0833 16.0514 14.0833 16.0551 14.0833 16.0588C14.0833 16.0626 14.0833 16.0663 14.0833 16.0701C14.0833 16.0739 14.0833 16.0777 14.0833 16.0815C14.0833 16.0853 14.0833 16.0891 14.0833 16.093C14.0833 16.0969 14.0833 16.1007 14.0833 16.1046C14.0833 16.1085 14.0833 16.1124 14.0833 16.1164C14.0833 16.1203 14.0833 16.1243 14.0833 16.1282C14.0833 16.1322 14.0833 16.1362 14.0833 16.1402C14.0833 16.1442 14.0833 16.1483 14.0833 16.1523C14.0833 16.1564 14.0833 16.1604 14.0833 16.1645C14.0833 16.1686 14.0833 16.1727 14.0833 16.1769C14.0833 16.181 14.0833 16.1852 14.0833 16.1893C14.0833 16.1935 14.0833 16.1977 14.0833 16.2019C14.0833 16.2061 14.0833 16.2104 14.0833 16.2146C14.0833 16.2189 14.0833 16.2232 14.0833 16.2275C14.0833 16.2318 14.0833 16.2361 14.0833 16.2404C14.0833 16.2448 14.0833 16.2491 14.0833 16.2535C14.0833 16.2579 14.0833 16.2623 14.0833 16.2667C14.0833 16.2711 14.0833 16.2756 14.0833 16.28C14.0833 16.2845 14.0833 16.289 14.0833 16.2935C14.0833 16.298 14.0833 16.3025 14.0833 16.3071C14.0833 16.3116 14.0833 16.3162 14.0833 16.3208C14.0833 16.3254 14.0833 16.33 14.0833 16.3346C14.0833 16.3393 14.0833 16.3439 14.0833 16.3486C14.0833 16.3533 14.0833 16.358 14.0833 16.3627C14.0833 16.3674 14.0833 16.3722 14.0833 16.3769C14.0833 16.3817 14.0833 16.3865 14.0833 16.3913C14.0833 16.3961 14.0833 16.4009 14.0833 16.4058C14.0833 16.4106 14.0833 16.4155 14.0833 16.4204C14.0833 16.4253 14.0833 16.4302 14.0833 16.4351C14.0833 16.4401 14.0833 16.445 14.0833 16.45C14.0833 16.455 14.0833 16.46 14.0833 16.4651C14.0833 16.4701 14.0833 16.4751 14.0833 16.4802C14.0833 16.4853 14.0833 16.4904 14.0833 16.4955C14.0833 16.5006 14.0833 16.5058 14.0833 16.5109C14.0833 16.5161 14.0833 16.5213 14.0833 16.5265C14.0833 16.5317 14.0833 16.5369 14.0833 16.5422C14.0833 16.5474 14.0833 16.5527 14.0833 16.558C14.0833 16.5633 14.0833 16.5686 14.0833 16.574C14.0833 16.5793 14.0833 16.5847 14.0833 16.5901C14.0833 16.5955 14.0833 16.6009 14.0833 16.6063C14.0833 16.6118 14.0833 16.6172 14.0833 16.6227C14.0833 16.6282 14.0833 16.6337 14.0833 16.6393C14.0833 16.6448 14.0833 16.6503 14.0833 16.6559C14.0833 16.6615 14.0833 16.6671 14.0833 16.6727C14.0833 16.6784 14.0833 16.684 14.0833 16.6897C14.0833 16.6954 14.0833 16.7011 14.0833 16.7068C14.0833 16.7125 14.0833 16.7183 14.0833 16.724C14.0833 16.7298 14.0833 16.7356 14.0833 16.7414C14.0833 16.7472 14.0833 16.7531 14.0833 16.7589C14.0833 16.7648 14.0833 16.7707 14.0833 16.7766C14.0833 16.7825 14.0833 16.7885 14.0833 16.7944C14.0833 16.8004 14.0833 16.8064 14.0833 16.8124C14.0833 16.8184 14.0833 16.8244 14.0833 16.8305C14.0833 16.8365 14.0833 16.8426 14.0833 16.8487C14.0833 16.8549 14.0833 16.861 14.0833 16.8671C14.0833 16.8733 14.0833 16.8795 14.0833 16.8857C14.0833 16.8919 14.0833 16.8981 14.0833 16.9044C14.0833 16.9107 14.0833 16.9169 14.0833 16.9233C14.0833 16.9296 14.0833 16.9359 14.0833 16.9423C14.0833 16.9486 14.0833 16.955 14.0833 16.9614C14.0833 16.9678 14.0833 16.9742 14.0833 16.9807C14.0833 16.9872 14.0833 16.9937 14.0833 17.0002C14.0833 17.0067 14.0833 17.0132 14.0833 17.0198C14.0833 17.0263 14.0833 17.0329 14.0833 17.0395C14.0833 17.0461 14.0833 17.0528 14.0833 17.0594C14.0833 17.0661 14.0833 17.0728 14.0833 17.0795C14.0833 17.0862 14.0833 17.093 14.0833 17.0997C14.0833 17.1065 14.0833 17.1133 14.0833 17.1201C14.0833 17.1269 14.0833 17.1338 14.0833 17.1407C14.0833 17.1475 14.0833 17.1544 14.0833 17.1613C14.0833 17.1683 14.0833 17.1752 14.0833 17.1822C14.0833 17.1892 14.0833 17.1962 14.0833 17.2032C14.0833 17.2102 14.0833 17.2173 14.0833 17.2244C14.0833 17.2315 14.0833 17.2386 14.0833 17.2457C14.0833 17.2528 14.0833 17.26 14.0833 17.2672C14.0833 17.2744 14.0833 17.2816 14.0833 17.2888C14.0833 17.2961 14.0833 17.3033 14.0833 17.3106C14.0833 17.3179 14.0833 17.3253 14.0833 17.3326C14.0833 17.34 14.0833 17.3473 14.0833 17.3547C14.0833 17.3621 14.0833 17.3696 14.0833 17.377C14.0833 17.3845 14.0833 17.392 14.0833 17.3995C14.0833 17.407 14.0833 17.4145 14.0833 17.4221C14.0833 17.4297 14.0833 17.4373 14.0833 17.4449C14.0833 17.4525 14.0833 17.4602 14.0833 17.4678C14.0833 17.4755 14.0833 17.4832 14.0833 17.4909C14.0833 17.4987 14.0833 17.5064 14.0833 17.5142C14.0833 17.522 14.0833 17.5298 14.0833 17.5377C14.0833 17.5455 14.0833 17.5534 14.0833 17.5613C14.0833 17.5692 14.0833 17.5771 14.0833 17.5851C14.0833 17.593 14.0833 17.601 14.0833 17.609C14.0833 17.617 14.0833 17.6251 14.0833 17.6332C14.0833 17.6412 14.0833 17.6493 14.0833 17.6574C14.0833 17.6656 14.0833 17.6737 14.0833 17.6819C14.0833 17.6901 14.0833 17.6983 14.0833 17.7065C14.0833 17.7148 14.0833 17.7231 14.0833 17.7313C14.0833 17.7396 14.0833 17.748 14.0833 17.7563C14.0833 17.7647 14.0833 17.7731 14.0833 17.7815C14.0833 17.7899 14.0833 17.7983 14.0833 17.8068C14.0833 17.8153 14.0833 17.8238 14.0833 17.8323C14.0833 17.8408 14.0833 17.8494 14.0833 17.858C14.0833 17.8666 14.0833 17.8752 14.0833 17.8838C14.0833 17.8925 14.0833 17.9011 14.0833 17.9098C14.0833 17.9185 14.0833 17.9273 14.0833 17.936C14.0833 17.9448 14.0833 17.9536 14.0833 17.9624C14.0833 17.9712 14.0833 17.9801 14.0833 17.989C14.0833 17.9979 14.0833 18.0068 14.0833 18.0157C14.0833 18.0246 14.0833 18.0336 14.0833 18.0426C14.0833 18.0516 14.0833 18.0606 14.0833 18.0697C14.0833 18.0788 14.0833 18.0879 14.0833 18.097C14.0833 18.1061 14.0833 18.1152 14.0833 18.1244C14.0833 18.1336 14.0833 18.1428 14.0833 18.1521C14.0833 18.1613 14.0833 18.1706 14.0833 18.1799C14.0833 18.1892 14.0833 18.1985 14.0833 18.2079C14.0833 18.2172 14.0833 18.2266 14.0833 18.2361C14.0833 18.2455 14.0833 18.2549 14.0833 18.2644C14.0833 18.2739 14.0833 18.2834 14.0833 18.293C14.0833 18.3025 14.0833 18.3121 14.0833 18.3217C14.0833 18.3313 14.0833 18.3409 14.0833 18.3506C14.0833 18.3603 14.0833 18.37 14.0833 18.3797C14.0833 18.3895 14.0833 18.3992 14.0833 18.409C14.0833 18.4188 14.0833 18.4286 14.0833 18.4385C14.0833 18.4483 14.0833 18.4582 14.0833 18.4682C14.0833 18.4781 14.0833 18.488 14.0833 18.498C14.0833 18.508 14.0833 18.518 14.0833 18.528C14.0833 18.5381 14.0833 18.5482 14.0833 18.5583C14.0833 18.5684 14.0833 18.5785 14.0833 18.5887C14.0833 18.5989 14.0833 18.6091 14.0833 18.6193C14.0833 18.6296 14.0833 18.6398 14.0833 18.6501C14.0833 18.6604 14.0833 18.6708 14.0833 18.6811C14.0833 18.6915 14.0833 18.7019 14.0833 18.7123C14.0833 18.7227 14.0833 18.7332 14.0833 18.7437C14.0833 18.7542 14.0833 18.7647 14.0833 18.7753C14.0833 18.7858 14.0833 18.7964 14.0833 18.807C14.0833 18.8177 14.0833 18.8283 14.0833 18.839C14.0833 18.8497 14.0833 18.8604 14.0833 18.8712C14.0833 18.8819 14.0833 18.8927 14.0833 18.9035C14.0833 18.9143 14.0833 18.9252 14.0833 18.9361C14.0833 18.947 14.0833 18.9579 14.0833 18.9688C14.0833 18.9798 14.0833 18.9908 14.0833 19.0018C14.0833 19.0128 14.0833 19.0238 14.0833 19.0349C14.0833 19.046 14.0833 19.0571 14.0833 19.0683C14.0833 19.0794 14.0833 19.0906 14.0833 19.1018C14.0833 19.113 14.0833 19.1243 14.0833 19.1356C14.0833 19.1468 14.0833 19.1581 14.0833 19.1695C14.0833 19.1808 14.0833 19.1922 14.0833 19.2036C14.0833 19.2151 14.0833 19.2265 14.0833 19.238C14.0833 19.2495 14.0833 19.261 14.0833 19.2726C14.0833 19.2841 14.0833 19.2957 14.0833 19.3073C14.0833 19.3189 14.0833 19.3306 14.0833 19.3423C14.0833 19.354 14.0833 19.3657 14.0833 19.3774C14.0833 19.3892 14.0833 19.401 14.0833 19.4128C14.0833 19.4246 14.0833 19.4365 14.0833 19.4484C14.0833 19.4603 14.0833 19.4722 14.0833 19.4842C14.0833 19.4961 14.0833 19.5081 14.0833 19.5201C14.0833 19.5322 14.0833 19.5442 14.0833 19.5563C14.0833 19.5684 14.0833 19.5806 14.0833 19.5927C14.0833 19.6049 14.0833 19.6171 14.0833 19.6294C14.0833 19.6416 14.0833 19.6539 14.0833 19.6662C14.0833 19.6785 14.0833 19.6908 14.0833 19.7032C14.0833 19.7156 14.0833 19.728 14.0833 19.7405C14.0833 19.7529 14.0833 19.7654 14.0833 19.7779C14.0833 19.7904 14.0833 19.803 14.0833 19.8156C14.0833 19.8282 14.0833 19.8408 14.0833 19.8534C14.0833 19.8661 14.0833 19.8788 14.0833 19.8915C14.0833 19.9043 14.0833 19.917 14.0833 19.9298C14.0833 19.9426 14.0833 19.9555 14.0833 19.9684C14.0833 19.9812 14.0833 19.9941 14.0833 20.0071C14.0833 20.02 14.0833 20.033 14.0833 20.046C14.0833 20.059 14.0833 20.0721 14.0833 20.0852C14.0833 20.0983 14.0833 20.1114 14.0833 20.1246C14.0833 20.1377 14.0833 20.1509 14.0833 20.1642C14.0833 20.1774 14.0833 20.1907 14.0833 20.204C14.0833 20.2173 14.0833 20.2306 14.0833 20.244C14.0833 20.2574 14.0833 20.2708 14.0833 20.2843C14.0833 20.2977 14.0833 20.3112 14.0833 20.3247C14.0833 20.3383 14.0833 20.3518 14.0833 20.3654C14.0833 20.379 14.0833 20.3927 14.0833 20.4063C14.0833 20.42 14.0833 20.4337 14.0833 20.4475C14.0833 20.4612 14.0833 20.475 14.0833 20.4888C14.0833 20.5026 14.0833 20.5165 14.0833 20.5304C14.0833 20.5443 14.0833 20.5582 14.0833 20.5722C14.0833 20.5862 14.0833 20.6002 14.0833 20.6142C14.0833 20.6283 14.0833 20.6423 14.0833 20.6565C14.0833 20.6706 14.0833 20.6847 14.0833 20.6989C14.0833 20.7131 14.0833 20.7273 14.0833 20.7416C14.0833 20.7559 14.0833 20.7702 14.0833 20.7845C14.0833 20.7989 14.0833 20.8133 14.0833 20.8277C14.0833 20.8421 14.0833 20.8566 14.0833 20.8711C14.0833 20.8856 14.0833 20.9001 14.0833 20.9147C14.0833 20.9292 14.0833 20.9438 14.0833 20.9585C14.0833 20.9731 14.0833 20.9878 14.0833 21.0026C14.0833 21.0173 14.0833 21.032 14.0833 21.0468C14.0833 21.0616 14.0833 21.0765 14.0833 21.0914C14.0833 21.1062 14.0833 21.1212 14.0833 21.1361C14.0833 21.1511 14.0833 21.1661 14.0833 21.1811C14.0833 21.1961 14.0833 21.2112 14.0833 21.2263C14.0833 21.2414 14.0833 21.2566 14.0833 21.2718C14.0833 21.2869 14.0833 21.3022 14.0833 21.3174C14.0833 21.3327 14.0833 21.348 14.0833 21.3633C14.0833 21.3787 14.0833 21.3941 14.0833 21.4095C14.0833 21.4249 14.0833 21.4404 14.0833 21.4559C14.0833 21.4714 14.0833 21.4869 14.0833 21.5025C14.0833 21.5181 14.0833 21.5337 14.0833 21.5493C14.0833 21.565 14.0833 21.5807 14.0833 21.5964C14.0833 21.6122 14.0833 21.6279 14.0833 21.6438C14.0833 21.6596 14.0833 21.6754 14.0833 21.6913C14.0833 21.7072 14.0833 21.7232 14.0833 21.7391C14.0833 21.7551 14.0833 21.7711 14.0833 21.7872C14.0833 21.8032 14.0833 21.8193 14.0833 21.8355C14.0833 21.8516 14.0833 21.8678 14.0833 21.884C14.0833 21.9002 14.0833 21.9164 14.0833 21.9327C14.0833 21.949 14.0833 21.9654 14.0833 21.9817C14.0833 21.9981 14.0833 22.0145 14.0833 22.031C14.0833 22.0474 14.0833 22.0639 14.0833 22.0805C14.0833 22.097 14.0833 22.1136 14.0833 22.1302C14.0833 22.1468 14.0833 22.1635 14.0833 22.1802C14.0833 22.1969 14.0833 22.2136 14.0833 22.2304C14.0833 22.2472 14.0833 22.264 14.0833 22.2809C14.0833 22.2977 14.0833 22.3146 14.0833 22.3316C14.0833 22.3485 14.0833 22.3655 14.0833 22.3825C14.0833 22.3996 14.0833 22.4166 14.0833 22.4337C14.0833 22.4508 14.0833 22.468 14.0833 22.4852C14.0833 22.5024 14.0833 22.5196 14.0833 22.5369C14.0833 22.5542 14.0833 22.5715 14.0833 22.5888C14.0833 22.6062 14.0833 22.6236 14.0833 22.641C14.0833 22.6585 14.0833 22.676 14.0833 22.6935C14.0833 22.711 14.0833 22.7286 14.0833 22.7462C14.0833 22.7638 14.0833 22.7814 14.0833 22.7991C14.0833 22.8168 14.0833 22.8345 14.0833 22.8523C14.0833 22.8701 14.0833 22.8879 14.0833 22.9058C14.0833 22.9236 14.0833 22.9415 14.0833 22.9595C14.0833 22.9774 14.0833 22.9954 14.0833 23.0134C14.0833 23.0315 14.0833 23.0495 14.0833 23.0676C14.0833 23.0858 14.0833 23.1039 14.0833 23.1221C14.0833 23.1403 14.0833 23.1585 14.0833 23.1768C14.0833 23.1951 14.0833 23.2134 14.0833 23.2318C14.0833 23.2502 14.0833 23.2686 14.0833 23.287C14.0833 23.3055 14.0833 23.324 14.0833 23.3425C14.0833 23.3611 14.0833 23.3797 14.0833 23.3983C14.0833 23.4169 14.0833 23.4356 14.0833 23.4543C14.0833 23.473 14.0833 23.4917 14.0833 23.5105C14.0833 23.5293 14.0833 23.5482 14.0833 23.5671C14.0833 23.586 14.0833 23.6049 14.0833 23.6239C14.0833 23.6428 14.0833 23.6618 14.0833 23.6809C14.0833 23.7 14.0833 23.7191 14.0833 23.7382C14.0833 23.7573 14.0833 23.7765 14.0833 23.7958C14.0833 23.815 14.0833 23.8343 14.0833 23.8536C14.0833 23.8729 14.0833 23.8923 14.0833 23.9117C14.0833 23.9311 14.0833 23.9505 14.0833 23.97C14.0833 23.9895 14.0833 24.0091 14.0833 24.0287C14.0833 24.0482 14.0833 24.0679 14.0833 24.0875C14.0833 24.1072 14.0833 24.1269 14.0833 24.1467C14.0833 24.1665 14.0833 24.1863 14.0833 24.2061C14.0833 24.226 14.0833 24.2458 14.0833 24.2658C14.0833 24.2857 14.0833 24.3057 14.0833 24.3257C14.0833 24.3458 14.0833 24.3658 14.0833 24.386C14.0833 24.4061 14.0833 24.4262 14.0833 24.4464C14.0833 24.4666 14.0833 24.4869 14.0833 24.5072C14.0833 24.5275 14.0833 24.5478 14.0833 24.5682C14.0833 24.5886 14.0833 24.609 14.0833 24.6295C14.0833 24.65 14.0833 24.6705 14.0833 24.6911C14.0833 24.7116 14.0833 24.7322 14.0833 24.7529C14.0833 24.7736 14.0833 24.7943 14.0833 24.815C14.0833 24.8358 14.0833 24.8565 14.0833 24.8774C14.0833 24.8982 14.0833 24.9191 14.0833 24.94C14.0833 24.961 14.0833 24.9819 14.0833 25.003C14.0833 25.024 14.0833 25.045 14.0833 25.0662C14.0833 25.0873 14.0833 25.1084 14.0833 25.1296C14.0833 25.1508 14.0833 25.1721 14.0833 25.1934C14.0833 25.2147 14.0833 25.236 14.0833 25.2574C14.0833 25.2788 14.0833 25.3002 14.0833 25.3217C14.0833 25.3432 14.0833 25.3647 14.0833 25.3863C14.0833 25.4079 14.0833 25.4295 14.0833 25.4511C14.0833 25.4728 14.0833 25.4945 14.0833 25.5163C14.0833 25.538 14.0833 25.5598 14.0833 25.5817C14.0833 25.6035 14.0833 25.6254 14.0833 25.6474C14.0833 25.6693 14.0833 25.6913 14.0833 25.7134C14.0833 25.7354 14.0833 25.7575 14.0833 25.7796C14.0833 25.8017 14.0833 25.8239 14.0833 25.8461C14.0833 25.8684 14.0833 25.8906 14.0833 25.913C14.0833 25.9353 14.0833 25.9577 14.0833 25.9801C14.0833 26.0025 14.0833 26.0249 14.0833 26.0474C14.0833 26.07 14.0833 26.0925 14.0833 26.1151C14.0833 26.1377 14.0833 26.1604 14.0833 26.1831C14.0833 26.2058 14.0833 26.2285 14.0833 26.2513C14.0833 26.2741 14.0833 26.2969 14.0833 26.3198C14.0833 26.3427 14.0833 26.3656 14.0833 26.3886C14.0833 26.4116 14.0833 26.4346 14.0833 26.4577C14.0833 26.4808 14.0833 26.5039 14.0833 26.5271C14.0833 26.5503 14.0833 26.5735 14.0833 26.5968C14.0833 26.62 14.0833 26.6434 14.0833 26.6667C14.0833 26.6901 14.0833 26.7135 14.0833 26.737C14.0833 26.7604 14.0833 26.784 14.0833 26.8075C14.0833 26.8311 14.0833 26.8547 14.0833 26.8783C14.0833 26.902 14.0833 26.9257 14.0833 26.9495C14.0833 26.9732 14.0833 26.997 14.0833 27.0209C14.0833 27.0447 14.0833 27.0686 14.0833 27.0926C14.0833 27.1165 14.0833 27.1405 14.0833 27.1646C14.0833 27.1886 14.0833 27.2127 14.0833 27.2369C14.0833 27.261 14.0833 27.2852 14.0833 27.3094C14.0833 27.3337 14.0833 27.358 14.0833 27.3823C14.0833 27.4067 14.0833 27.431 14.0833 27.4555C14.0833 27.4799 14.0833 27.5044 14.0833 27.529C14.0833 27.5535 14.0833 27.5781 14.0833 27.6027C14.0833 27.6273 14.0833 27.652 14.0833 27.6768C14.0833 27.7015 14.0833 27.7263 14.0833 27.7511C14.0833 27.776 14.0833 27.8008 14.0833 27.8258C14.0833 27.8507 14.0833 27.8757 14.0833 27.9007C14.0833 27.9258 14.0833 27.9509 14.0833 27.976C14.0833 28.0011 14.0833 28.0263 14.0833 28.0515C14.0833 28.0768 14.0833 28.1021 14.0833 28.1274C14.0833 28.1527 14.0833 28.1781 14.0833 28.2036C14.0833 28.229 14.0833 28.2545 14.0833 28.28C14.0833 28.3055 14.0833 28.3311 14.0833 28.3568C14.0833 28.3824 14.0833 28.4081 14.0833 28.4338C14.0833 28.4596 14.0833 28.4853 14.0833 28.5112C14.0833 28.537 14.0833 28.5629 14.0833 28.5889C14.0833 28.6148 14.0833 28.6408 14.0833 28.6668H16.5833C16.5833 28.6408 16.5833 28.6148 16.5833 28.5889C16.5833 28.5629 16.5833 28.537 16.5833 28.5112C16.5833 28.4853 16.5833 28.4596 16.5833 28.4338C16.5833 28.4081 16.5833 28.3824 16.5833 28.3568C16.5833 28.3311 16.5833 28.3055 16.5833 28.28C16.5833 28.2545 16.5833 28.229 16.5833 28.2036C16.5833 28.1781 16.5833 28.1527 16.5833 28.1274C16.5833 28.1021 16.5833 28.0768 16.5833 28.0515C16.5833 28.0263 16.5833 28.0011 16.5833 27.976C16.5833 27.9509 16.5833 27.9258 16.5833 27.9007C16.5833 27.8757 16.5833 27.8507 16.5833 27.8258C16.5833 27.8008 16.5833 27.776 16.5833 27.7511C16.5833 27.7263 16.5833 27.7015 16.5833 27.6768C16.5833 27.652 16.5833 27.6273 16.5833 27.6027C16.5833 27.5781 16.5833 27.5535 16.5833 27.529C16.5833 27.5044 16.5833 27.4799 16.5833 27.4555C16.5833 27.431 16.5833 27.4067 16.5833 27.3823C16.5833 27.358 16.5833 27.3337 16.5833 27.3094C16.5833 27.2852 16.5833 27.261 16.5833 27.2369C16.5833 27.2127 16.5833 27.1886 16.5833 27.1646C16.5833 27.1405 16.5833 27.1165 16.5833 27.0926C16.5833 27.0686 16.5833 27.0447 16.5833 27.0209C16.5833 26.997 16.5833 26.9732 16.5833 26.9495C16.5833 26.9257 16.5833 26.902 16.5833 26.8783C16.5833 26.8547 16.5833 26.8311 16.5833 26.8075C16.5833 26.784 16.5833 26.7604 16.5833 26.737C16.5833 26.7135 16.5833 26.6901 16.5833 26.6667C16.5833 26.6434 16.5833 26.62 16.5833 26.5968C16.5833 26.5735 16.5833 26.5503 16.5833 26.5271C16.5833 26.5039 16.5833 26.4808 16.5833 26.4577C16.5833 26.4346 16.5833 26.4116 16.5833 26.3886C16.5833 26.3656 16.5833 26.3427 16.5833 26.3198C16.5833 26.2969 16.5833 26.2741 16.5833 26.2513C16.5833 26.2285 16.5833 26.2058 16.5833 26.1831C16.5833 26.1604 16.5833 26.1377 16.5833 26.1151C16.5833 26.0925 16.5833 26.07 16.5833 26.0474C16.5833 26.0249 16.5833 26.0025 16.5833 25.9801C16.5833 25.9577 16.5833 25.9353 16.5833 25.913C16.5833 25.8906 16.5833 25.8684 16.5833 25.8461C16.5833 25.8239 16.5833 25.8017 16.5833 25.7796C16.5833 25.7575 16.5833 25.7354 16.5833 25.7134C16.5833 25.6913 16.5833 25.6693 16.5833 25.6474C16.5833 25.6254 16.5833 25.6035 16.5833 25.5817C16.5833 25.5598 16.5833 25.538 16.5833 25.5163C16.5833 25.4945 16.5833 25.4728 16.5833 25.4511C16.5833 25.4295 16.5833 25.4079 16.5833 25.3863C16.5833 25.3647 16.5833 25.3432 16.5833 25.3217C16.5833 25.3002 16.5833 25.2788 16.5833 25.2574C16.5833 25.236 16.5833 25.2147 16.5833 25.1934C16.5833 25.1721 16.5833 25.1508 16.5833 25.1296C16.5833 25.1084 16.5833 25.0873 16.5833 25.0662C16.5833 25.045 16.5833 25.024 16.5833 25.003C16.5833 24.9819 16.5833 24.961 16.5833 24.94C16.5833 24.9191 16.5833 24.8982 16.5833 24.8774C16.5833 24.8565 16.5833 24.8358 16.5833 24.815C16.5833 24.7943 16.5833 24.7736 16.5833 24.7529C16.5833 24.7322 16.5833 24.7116 16.5833 24.6911C16.5833 24.6705 16.5833 24.65 16.5833 24.6295C16.5833 24.609 16.5833 24.5886 16.5833 24.5682C16.5833 24.5478 16.5833 24.5275 16.5833 24.5072C16.5833 24.4869 16.5833 24.4666 16.5833 24.4464C16.5833 24.4262 16.5833 24.4061 16.5833 24.386C16.5833 24.3658 16.5833 24.3458 16.5833 24.3257C16.5833 24.3057 16.5833 24.2857 16.5833 24.2658C16.5833 24.2458 16.5833 24.226 16.5833 24.2061C16.5833 24.1863 16.5833 24.1665 16.5833 24.1467C16.5833 24.1269 16.5833 24.1072 16.5833 24.0875C16.5833 24.0679 16.5833 24.0482 16.5833 24.0287C16.5833 24.0091 16.5833 23.9895 16.5833 23.97C16.5833 23.9505 16.5833 23.9311 16.5833 23.9117C16.5833 23.8923 16.5833 23.8729 16.5833 23.8536C16.5833 23.8343 16.5833 23.815 16.5833 23.7958C16.5833 23.7765 16.5833 23.7573 16.5833 23.7382C16.5833 23.7191 16.5833 23.7 16.5833 23.6809C16.5833 23.6618 16.5833 23.6428 16.5833 23.6239C16.5833 23.6049 16.5833 23.586 16.5833 23.5671C16.5833 23.5482 16.5833 23.5293 16.5833 23.5105C16.5833 23.4917 16.5833 23.473 16.5833 23.4543C16.5833 23.4356 16.5833 23.4169 16.5833 23.3983C16.5833 23.3797 16.5833 23.3611 16.5833 23.3425C16.5833 23.324 16.5833 23.3055 16.5833 23.287C16.5833 23.2686 16.5833 23.2502 16.5833 23.2318C16.5833 23.2134 16.5833 23.1951 16.5833 23.1768C16.5833 23.1585 16.5833 23.1403 16.5833 23.1221C16.5833 23.1039 16.5833 23.0858 16.5833 23.0676C16.5833 23.0495 16.5833 23.0315 16.5833 23.0134C16.5833 22.9954 16.5833 22.9774 16.5833 22.9595C16.5833 22.9415 16.5833 22.9236 16.5833 22.9058C16.5833 22.8879 16.5833 22.8701 16.5833 22.8523C16.5833 22.8345 16.5833 22.8168 16.5833 22.7991C16.5833 22.7814 16.5833 22.7638 16.5833 22.7462C16.5833 22.7286 16.5833 22.711 16.5833 22.6935C16.5833 22.676 16.5833 22.6585 16.5833 22.641C16.5833 22.6236 16.5833 22.6062 16.5833 22.5888C16.5833 22.5715 16.5833 22.5542 16.5833 22.5369C16.5833 22.5196 16.5833 22.5024 16.5833 22.4852C16.5833 22.468 16.5833 22.4508 16.5833 22.4337C16.5833 22.4166 16.5833 22.3996 16.5833 22.3825C16.5833 22.3655 16.5833 22.3485 16.5833 22.3316C16.5833 22.3146 16.5833 22.2977 16.5833 22.2809C16.5833 22.264 16.5833 22.2472 16.5833 22.2304C16.5833 22.2136 16.5833 22.1969 16.5833 22.1802C16.5833 22.1635 16.5833 22.1468 16.5833 22.1302C16.5833 22.1136 16.5833 22.097 16.5833 22.0805C16.5833 22.0639 16.5833 22.0474 16.5833 22.031C16.5833 22.0145 16.5833 21.9981 16.5833 21.9817C16.5833 21.9654 16.5833 21.949 16.5833 21.9327C16.5833 21.9164 16.5833 21.9002 16.5833 21.884C16.5833 21.8678 16.5833 21.8516 16.5833 21.8355C16.5833 21.8193 16.5833 21.8032 16.5833 21.7872C16.5833 21.7711 16.5833 21.7551 16.5833 21.7391C16.5833 21.7232 16.5833 21.7072 16.5833 21.6913C16.5833 21.6754 16.5833 21.6596 16.5833 21.6438C16.5833 21.6279 16.5833 21.6122 16.5833 21.5964C16.5833 21.5807 16.5833 21.565 16.5833 21.5493C16.5833 21.5337 16.5833 21.5181 16.5833 21.5025C16.5833 21.4869 16.5833 21.4714 16.5833 21.4559C16.5833 21.4404 16.5833 21.4249 16.5833 21.4095C16.5833 21.3941 16.5833 21.3787 16.5833 21.3633C16.5833 21.348 16.5833 21.3327 16.5833 21.3174C16.5833 21.3022 16.5833 21.2869 16.5833 21.2718C16.5833 21.2566 16.5833 21.2414 16.5833 21.2263C16.5833 21.2112 16.5833 21.1961 16.5833 21.1811C16.5833 21.1661 16.5833 21.1511 16.5833 21.1361C16.5833 21.1212 16.5833 21.1062 16.5833 21.0914C16.5833 21.0765 16.5833 21.0616 16.5833 21.0468C16.5833 21.032 16.5833 21.0173 16.5833 21.0026C16.5833 20.9878 16.5833 20.9731 16.5833 20.9585C16.5833 20.9438 16.5833 20.9292 16.5833 20.9147C16.5833 20.9001 16.5833 20.8856 16.5833 20.8711C16.5833 20.8566 16.5833 20.8421 16.5833 20.8277C16.5833 20.8133 16.5833 20.7989 16.5833 20.7845C16.5833 20.7702 16.5833 20.7559 16.5833 20.7416C16.5833 20.7273 16.5833 20.7131 16.5833 20.6989C16.5833 20.6847 16.5833 20.6706 16.5833 20.6565C16.5833 20.6423 16.5833 20.6283 16.5833 20.6142C16.5833 20.6002 16.5833 20.5862 16.5833 20.5722C16.5833 20.5582 16.5833 20.5443 16.5833 20.5304C16.5833 20.5165 16.5833 20.5026 16.5833 20.4888C16.5833 20.475 16.5833 20.4612 16.5833 20.4475C16.5833 20.4337 16.5833 20.42 16.5833 20.4063C16.5833 20.3927 16.5833 20.379 16.5833 20.3654C16.5833 20.3518 16.5833 20.3383 16.5833 20.3247C16.5833 20.3112 16.5833 20.2977 16.5833 20.2843C16.5833 20.2708 16.5833 20.2574 16.5833 20.244C16.5833 20.2306 16.5833 20.2173 16.5833 20.204C16.5833 20.1907 16.5833 20.1774 16.5833 20.1642C16.5833 20.1509 16.5833 20.1377 16.5833 20.1246C16.5833 20.1114 16.5833 20.0983 16.5833 20.0852C16.5833 20.0721 16.5833 20.059 16.5833 20.046C16.5833 20.033 16.5833 20.02 16.5833 20.0071C16.5833 19.9941 16.5833 19.9812 16.5833 19.9684C16.5833 19.9555 16.5833 19.9426 16.5833 19.9298C16.5833 19.917 16.5833 19.9043 16.5833 19.8915C16.5833 19.8788 16.5833 19.8661 16.5833 19.8534C16.5833 19.8408 16.5833 19.8282 16.5833 19.8156C16.5833 19.803 16.5833 19.7904 16.5833 19.7779C16.5833 19.7654 16.5833 19.7529 16.5833 19.7405C16.5833 19.728 16.5833 19.7156 16.5833 19.7032C16.5833 19.6908 16.5833 19.6785 16.5833 19.6662C16.5833 19.6539 16.5833 19.6416 16.5833 19.6294C16.5833 19.6171 16.5833 19.6049 16.5833 19.5927C16.5833 19.5806 16.5833 19.5684 16.5833 19.5563C16.5833 19.5442 16.5833 19.5322 16.5833 19.5201C16.5833 19.5081 16.5833 19.4961 16.5833 19.4842C16.5833 19.4722 16.5833 19.4603 16.5833 19.4484C16.5833 19.4365 16.5833 19.4246 16.5833 19.4128C16.5833 19.401 16.5833 19.3892 16.5833 19.3774C16.5833 19.3657 16.5833 19.354 16.5833 19.3423C16.5833 19.3306 16.5833 19.3189 16.5833 19.3073C16.5833 19.2957 16.5833 19.2841 16.5833 19.2726C16.5833 19.261 16.5833 19.2495 16.5833 19.238C16.5833 19.2265 16.5833 19.2151 16.5833 19.2036C16.5833 19.1922 16.5833 19.1808 16.5833 19.1695C16.5833 19.1581 16.5833 19.1468 16.5833 19.1356C16.5833 19.1243 16.5833 19.113 16.5833 19.1018C16.5833 19.0906 16.5833 19.0794 16.5833 19.0683C16.5833 19.0571 16.5833 19.046 16.5833 19.0349C16.5833 19.0238 16.5833 19.0128 16.5833 19.0018C16.5833 18.9908 16.5833 18.9798 16.5833 18.9688C16.5833 18.9579 16.5833 18.947 16.5833 18.9361C16.5833 18.9252 16.5833 18.9143 16.5833 18.9035C16.5833 18.8927 16.5833 18.8819 16.5833 18.8712C16.5833 18.8604 16.5833 18.8497 16.5833 18.839C16.5833 18.8283 16.5833 18.8177 16.5833 18.807C16.5833 18.7964 16.5833 18.7858 16.5833 18.7753C16.5833 18.7647 16.5833 18.7542 16.5833 18.7437C16.5833 18.7332 16.5833 18.7227 16.5833 18.7123C16.5833 18.7019 16.5833 18.6915 16.5833 18.6811C16.5833 18.6708 16.5833 18.6604 16.5833 18.6501C16.5833 18.6398 16.5833 18.6296 16.5833 18.6193C16.5833 18.6091 16.5833 18.5989 16.5833 18.5887C16.5833 18.5785 16.5833 18.5684 16.5833 18.5583C16.5833 18.5482 16.5833 18.5381 16.5833 18.528C16.5833 18.518 16.5833 18.508 16.5833 18.498C16.5833 18.488 16.5833 18.4781 16.5833 18.4682C16.5833 18.4582 16.5833 18.4483 16.5833 18.4385C16.5833 18.4286 16.5833 18.4188 16.5833 18.409C16.5833 18.3992 16.5833 18.3895 16.5833 18.3797C16.5833 18.37 16.5833 18.3603 16.5833 18.3506C16.5833 18.3409 16.5833 18.3313 16.5833 18.3217C16.5833 18.3121 16.5833 18.3025 16.5833 18.293C16.5833 18.2834 16.5833 18.2739 16.5833 18.2644C16.5833 18.2549 16.5833 18.2455 16.5833 18.2361C16.5833 18.2266 16.5833 18.2172 16.5833 18.2079C16.5833 18.1985 16.5833 18.1892 16.5833 18.1799C16.5833 18.1706 16.5833 18.1613 16.5833 18.1521C16.5833 18.1428 16.5833 18.1336 16.5833 18.1244C16.5833 18.1152 16.5833 18.1061 16.5833 18.097C16.5833 18.0879 16.5833 18.0788 16.5833 18.0697C16.5833 18.0606 16.5833 18.0516 16.5833 18.0426C16.5833 18.0336 16.5833 18.0246 16.5833 18.0157C16.5833 18.0068 16.5833 17.9979 16.5833 17.989C16.5833 17.9801 16.5833 17.9712 16.5833 17.9624C16.5833 17.9536 16.5833 17.9448 16.5833 17.936C16.5833 17.9273 16.5833 17.9185 16.5833 17.9098C16.5833 17.9011 16.5833 17.8925 16.5833 17.8838C16.5833 17.8752 16.5833 17.8666 16.5833 17.858C16.5833 17.8494 16.5833 17.8408 16.5833 17.8323C16.5833 17.8238 16.5833 17.8153 16.5833 17.8068C16.5833 17.7983 16.5833 17.7899 16.5833 17.7815C16.5833 17.7731 16.5833 17.7647 16.5833 17.7563C16.5833 17.748 16.5833 17.7396 16.5833 17.7313C16.5833 17.7231 16.5833 17.7148 16.5833 17.7065C16.5833 17.6983 16.5833 17.6901 16.5833 17.6819C16.5833 17.6737 16.5833 17.6656 16.5833 17.6574C16.5833 17.6493 16.5833 17.6412 16.5833 17.6332C16.5833 17.6251 16.5833 17.617 16.5833 17.609C16.5833 17.601 16.5833 17.593 16.5833 17.5851C16.5833 17.5771 16.5833 17.5692 16.5833 17.5613C16.5833 17.5534 16.5833 17.5455 16.5833 17.5377C16.5833 17.5298 16.5833 17.522 16.5833 17.5142C16.5833 17.5064 16.5833 17.4987 16.5833 17.4909C16.5833 17.4832 16.5833 17.4755 16.5833 17.4678C16.5833 17.4602 16.5833 17.4525 16.5833 17.4449C16.5833 17.4373 16.5833 17.4297 16.5833 17.4221C16.5833 17.4145 16.5833 17.407 16.5833 17.3995C16.5833 17.392 16.5833 17.3845 16.5833 17.377C16.5833 17.3696 16.5833 17.3621 16.5833 17.3547C16.5833 17.3473 16.5833 17.34 16.5833 17.3326C16.5833 17.3253 16.5833 17.3179 16.5833 17.3106C16.5833 17.3033 16.5833 17.2961 16.5833 17.2888C16.5833 17.2816 16.5833 17.2744 16.5833 17.2672C16.5833 17.26 16.5833 17.2528 16.5833 17.2457C16.5833 17.2386 16.5833 17.2315 16.5833 17.2244C16.5833 17.2173 16.5833 17.2102 16.5833 17.2032C16.5833 17.1962 16.5833 17.1892 16.5833 17.1822C16.5833 17.1752 16.5833 17.1683 16.5833 17.1613C16.5833 17.1544 16.5833 17.1475 16.5833 17.1407C16.5833 17.1338 16.5833 17.1269 16.5833 17.1201C16.5833 17.1133 16.5833 17.1065 16.5833 17.0997C16.5833 17.093 16.5833 17.0862 16.5833 17.0795C16.5833 17.0728 16.5833 17.0661 16.5833 17.0594C16.5833 17.0528 16.5833 17.0461 16.5833 17.0395C16.5833 17.0329 16.5833 17.0263 16.5833 17.0198C16.5833 17.0132 16.5833 17.0067 16.5833 17.0002C16.5833 16.9937 16.5833 16.9872 16.5833 16.9807C16.5833 16.9742 16.5833 16.9678 16.5833 16.9614C16.5833 16.955 16.5833 16.9486 16.5833 16.9423C16.5833 16.9359 16.5833 16.9296 16.5833 16.9233C16.5833 16.9169 16.5833 16.9107 16.5833 16.9044C16.5833 16.8981 16.5833 16.8919 16.5833 16.8857C16.5833 16.8795 16.5833 16.8733 16.5833 16.8671C16.5833 16.861 16.5833 16.8549 16.5833 16.8487C16.5833 16.8426 16.5833 16.8365 16.5833 16.8305C16.5833 16.8244 16.5833 16.8184 16.5833 16.8124C16.5833 16.8064 16.5833 16.8004 16.5833 16.7944C16.5833 16.7885 16.5833 16.7825 16.5833 16.7766C16.5833 16.7707 16.5833 16.7648 16.5833 16.7589C16.5833 16.7531 16.5833 16.7472 16.5833 16.7414C16.5833 16.7356 16.5833 16.7298 16.5833 16.724C16.5833 16.7183 16.5833 16.7125 16.5833 16.7068C16.5833 16.7011 16.5833 16.6954 16.5833 16.6897C16.5833 16.684 16.5833 16.6784 16.5833 16.6727C16.5833 16.6671 16.5833 16.6615 16.5833 16.6559C16.5833 16.6503 16.5833 16.6448 16.5833 16.6393C16.5833 16.6337 16.5833 16.6282 16.5833 16.6227C16.5833 16.6172 16.5833 16.6118 16.5833 16.6063C16.5833 16.6009 16.5833 16.5955 16.5833 16.5901C16.5833 16.5847 16.5833 16.5793 16.5833 16.574C16.5833 16.5686 16.5833 16.5633 16.5833 16.558C16.5833 16.5527 16.5833 16.5474 16.5833 16.5422C16.5833 16.5369 16.5833 16.5317 16.5833 16.5265C16.5833 16.5213 16.5833 16.5161 16.5833 16.5109C16.5833 16.5058 16.5833 16.5006 16.5833 16.4955C16.5833 16.4904 16.5833 16.4853 16.5833 16.4802C16.5833 16.4751 16.5833 16.4701 16.5833 16.4651C16.5833 16.46 16.5833 16.455 16.5833 16.45C16.5833 16.445 16.5833 16.4401 16.5833 16.4351C16.5833 16.4302 16.5833 16.4253 16.5833 16.4204C16.5833 16.4155 16.5833 16.4106 16.5833 16.4058C16.5833 16.4009 16.5833 16.3961 16.5833 16.3913C16.5833 16.3865 16.5833 16.3817 16.5833 16.3769C16.5833 16.3722 16.5833 16.3674 16.5833 16.3627C16.5833 16.358 16.5833 16.3533 16.5833 16.3486C16.5833 16.3439 16.5833 16.3393 16.5833 16.3346C16.5833 16.33 16.5833 16.3254 16.5833 16.3208C16.5833 16.3162 16.5833 16.3116 16.5833 16.3071C16.5833 16.3025 16.5833 16.298 16.5833 16.2935C16.5833 16.289 16.5833 16.2845 16.5833 16.28C16.5833 16.2756 16.5833 16.2711 16.5833 16.2667C16.5833 16.2623 16.5833 16.2579 16.5833 16.2535C16.5833 16.2491 16.5833 16.2448 16.5833 16.2404C16.5833 16.2361 16.5833 16.2318 16.5833 16.2275C16.5833 16.2232 16.5833 16.2189 16.5833 16.2146C16.5833 16.2104 16.5833 16.2061 16.5833 16.2019C16.5833 16.1977 16.5833 16.1935 16.5833 16.1893C16.5833 16.1852 16.5833 16.181 16.5833 16.1769C16.5833 16.1727 16.5833 16.1686 16.5833 16.1645C16.5833 16.1604 16.5833 16.1564 16.5833 16.1523C16.5833 16.1483 16.5833 16.1442 16.5833 16.1402C16.5833 16.1362 16.5833 16.1322 16.5833 16.1282C16.5833 16.1243 16.5833 16.1203 16.5833 16.1164C16.5833 16.1124 16.5833 16.1085 16.5833 16.1046C16.5833 16.1007 16.5833 16.0969 16.5833 16.093C16.5833 16.0891 16.5833 16.0853 16.5833 16.0815C16.5833 16.0777 16.5833 16.0739 16.5833 16.0701C16.5833 16.0663 16.5833 16.0626 16.5833 16.0588C16.5833 16.0551 16.5833 16.0514 16.5833 16.0477C16.5833 16.044 16.5833 16.0403 16.5833 16.0366C16.5833 16.033 16.5833 16.0293 16.5833 16.0257C16.5833 16.0221 16.5833 16.0185 16.5833 16.0149C16.5833 16.0113 16.5833 16.0077 16.5833 16.0042C16.5833 16.0006 16.5833 15.9971 16.5833 15.9936C16.5833 15.9901 16.5833 15.9866 16.5833 15.9831C16.5833 15.9796 16.5833 15.9762 16.5833 15.9727C16.5833 15.9693 16.5833 15.9659 16.5833 15.9625C16.5833 15.9591 16.5833 15.9557 16.5833 15.9523C16.5833 15.949 16.5833 15.9456 16.5833 15.9423C16.5833 15.939 16.5833 15.9357 16.5833 15.9324C16.5833 15.9291 16.5833 15.9258 16.5833 15.9226C16.5833 15.9193 16.5833 15.9161 16.5833 15.9129C16.5833 15.9096 16.5833 15.9064 16.5833 15.9033C16.5833 15.9001 16.5833 15.8969 16.5833 15.8938C16.5833 15.8906 16.5833 15.8875 16.5833 15.8844C16.5833 15.8813 16.5833 15.8782 16.5833 15.8751C16.5833 15.872 16.5833 15.8689 16.5833 15.8659C16.5833 15.8629 16.5833 15.8598 16.5833 15.8568C16.5833 15.8538 16.5833 15.8508 16.5833 15.8479C16.5833 15.8449 16.5833 15.8419 16.5833 15.839C16.5833 15.836 16.5833 15.8331 16.5833 15.8302C16.5833 15.8273 16.5833 15.8244 16.5833 15.8216C16.5833 15.8187 16.5833 15.8158 16.5833 15.813C16.5833 15.8102 16.5833 15.8073 16.5833 15.8045C16.5833 15.8017 16.5833 15.7989 16.5833 15.7962C16.5833 15.7934 16.5833 15.7906 16.5833 15.7879C16.5833 15.7852 16.5833 15.7825 16.5833 15.7797C16.5833 15.777 16.5833 15.7744 16.5833 15.7717C16.5833 15.769 16.5833 15.7664 16.5833 15.7637C16.5833 15.7611 16.5833 15.7585 16.5833 15.7558C16.5833 15.7532 16.5833 15.7506 16.5833 15.7481C16.5833 15.7455 16.5833 15.7429 16.5833 15.7404C16.5833 15.7379 16.5833 15.7353 16.5833 15.7328C16.5833 15.7303 16.5833 15.7278 16.5833 15.7253C16.5833 15.7228 16.5833 15.7204 16.5833 15.7179C16.5833 15.7155 16.5833 15.7131 16.5833 15.7106C16.5833 15.7082 16.5833 15.7058 16.5833 15.7034C16.5833 15.701 16.5833 15.6987 16.5833 15.6963C16.5833 15.694 16.5833 15.6916 16.5833 15.6893C16.5833 15.687 16.5833 15.6847 16.5833 15.6824C16.5833 15.6801 16.5833 15.6778 16.5833 15.6755C16.5833 15.6733 16.5833 15.671 16.5833 15.6688C16.5833 15.6665 16.5833 15.6643 16.5833 15.6621C16.5833 15.6599 16.5833 15.6577 16.5833 15.6555C16.5833 15.6534 16.5833 15.6512 16.5833 15.6491C16.5833 15.6469 16.5833 15.6448 16.5833 15.6427C16.5833 15.6405 16.5833 15.6384 16.5833 15.6363C16.5833 15.6343 16.5833 15.6322 16.5833 15.6301C16.5833 15.6281 16.5833 15.626 16.5833 15.624C16.5833 15.622 16.5833 15.6199 16.5833 15.6179C16.5833 15.6159 16.5833 15.6139 16.5833 15.612C16.5833 15.61 16.5833 15.608 16.5833 15.6061C16.5833 15.6041 16.5833 15.6022 16.5833 15.6003C16.5833 15.5984 16.5833 15.5965 16.5833 15.5946C16.5833 15.5927 16.5833 15.5908 16.5833 15.5889C16.5833 15.5871 16.5833 15.5852 16.5833 15.5834C16.5833 15.5815 16.5833 15.5797 16.5833 15.5779C16.5833 15.5761 16.5833 15.5743 16.5833 15.5725C16.5833 15.5707 16.5833 15.569 16.5833 15.5672C16.5833 15.5655 16.5833 15.5637 16.5833 15.562C16.5833 15.5602 16.5833 15.5585 16.5833 15.5568C16.5833 15.5551 16.5833 15.5534 16.5833 15.5517C16.5833 15.5501 16.5833 15.5484 16.5833 15.5468C16.5833 15.5451 16.5833 15.5435 16.5833 15.5418C16.5833 15.5402 16.5833 15.5386 16.5833 15.537C16.5833 15.5354 16.5833 15.5338 16.5833 15.5322C16.5833 15.5306 16.5833 15.5291 16.5833 15.5275C16.5833 15.526 16.5833 15.5244 16.5833 15.5229C16.5833 15.5214 16.5833 15.5199 16.5833 15.5184C16.5833 15.5169 16.5833 15.5154 16.5833 15.5139C16.5833 15.5124 16.5833 15.5109 16.5833 15.5095C16.5833 15.508 16.5833 15.5066 16.5833 15.5052C16.5833 15.5037 16.5833 15.5023 16.5833 15.5009C16.5833 15.4995 16.5833 15.4981 16.5833 15.4967C16.5833 15.4953 16.5833 15.494 16.5833 15.4926C16.5833 15.4912 16.5833 15.4899 16.5833 15.4886C16.5833 15.4872 16.5833 15.4859 16.5833 15.4846C16.5833 15.4833 16.5833 15.482 16.5833 15.4807C16.5833 15.4794 16.5833 15.4781 16.5833 15.4768C16.5833 15.4756 16.5833 15.4743 16.5833 15.4731C16.5833 15.4718 16.5833 15.4706 16.5833 15.4694C16.5833 15.4681 16.5833 15.4669 16.5833 15.4657C16.5833 15.4645 16.5833 15.4633 16.5833 15.4621C16.5833 15.461 16.5833 15.4598 16.5833 15.4586C16.5833 15.4575 16.5833 15.4563 16.5833 15.4552C16.5833 15.4541 16.5833 15.4529 16.5833 15.4518C16.5833 15.4507 16.5833 15.4496 16.5833 15.4485C16.5833 15.4474 16.5833 15.4463 16.5833 15.4452C16.5833 15.4442 16.5833 15.4431 16.5833 15.442C16.5833 15.441 16.5833 15.44 16.5833 15.4389C16.5833 15.4379 16.5833 15.4369 16.5833 15.4358C16.5833 15.4348 16.5833 15.4338 16.5833 15.4328C16.5833 15.4318 16.5833 15.4309 16.5833 15.4299C16.5833 15.4289 16.5833 15.4279 16.5833 15.427C16.5833 15.426 16.5833 15.4251 16.5833 15.4242C16.5833 15.4232 16.5833 15.4223 16.5833 15.4214C16.5833 15.4205 16.5833 15.4196 16.5833 15.4187C16.5833 15.4178 16.5833 15.4169 16.5833 15.416C16.5833 15.4151 16.5833 15.4143 16.5833 15.4134C16.5833 15.4125 16.5833 15.4117 16.5833 15.4109C16.5833 15.41 16.5833 15.4092 16.5833 15.4084C16.5833 15.4075 16.5833 15.4067 16.5833 15.4059C16.5833 15.4051 16.5833 15.4043 16.5833 15.4035C16.5833 15.4027 16.5833 15.402 16.5833 15.4012C16.5833 15.4004 16.5833 15.3997 16.5833 15.3989C16.5833 15.3982 16.5833 15.3974 16.5833 15.3967C16.5833 15.3959 16.5833 15.3952 16.5833 15.3945C16.5833 15.3938 16.5833 15.3931 16.5833 15.3924C16.5833 15.3917 16.5833 15.391 16.5833 15.3903C16.5833 15.3896 16.5833 15.3889 16.5833 15.3883C16.5833 15.3876 16.5833 15.3869 16.5833 15.3863C16.5833 15.3856 16.5833 15.385 16.5833 15.3844C16.5833 15.3837 16.5833 15.3831 16.5833 15.3825C16.5833 15.3819 16.5833 15.3812 16.5833 15.3806C16.5833 15.38 16.5833 15.3794 16.5833 15.3788C16.5833 15.3783 16.5833 15.3777 16.5833 15.3771C16.5833 15.3765 16.5833 15.376 16.5833 15.3754C16.5833 15.3748 16.5833 15.3743 16.5833 15.3738C16.5833 15.3732 16.5833 15.3727 16.5833 15.3721C16.5833 15.3716 16.5833 15.3711 16.5833 15.3706C16.5833 15.3701 16.5833 15.3696 16.5833 15.3691C16.5833 15.3686 16.5833 15.3681 16.5833 15.3676C16.5833 15.3671 16.5833 15.3666 16.5833 15.3661C16.5833 15.3657 16.5833 15.3652 16.5833 15.3647C16.5833 15.3643 16.5833 15.3638 16.5833 15.3634C16.5833 15.3629 16.5833 15.3625 16.5833 15.3621C16.5833 15.3616 16.5833 15.3612 16.5833 15.3608C16.5833 15.3604 16.5833 15.3599 16.5833 15.3595C16.5833 15.3591 16.5833 15.3587 16.5833 15.3583C16.5833 15.3579 16.5833 15.3576 16.5833 15.3572C16.5833 15.3568 16.5833 15.3564 16.5833 15.356C16.5833 15.3557 16.5833 15.3553 16.5833 15.355C16.5833 15.3546 16.5833 15.3542 16.5833 15.3539C16.5833 15.3536 16.5833 15.3532 16.5833 15.3529C16.5833 15.3525 16.5833 15.3522 16.5833 15.3519C16.5833 15.3516 16.5833 15.3513 16.5833 15.3509C16.5833 15.3506 16.5833 15.3503 16.5833 15.35C16.5833 15.3497 16.5833 15.3494 16.5833 15.3491C16.5833 15.3488 16.5833 15.3486 16.5833 15.3483C16.5833 15.348 16.5833 15.3477 16.5833 15.3475C16.5833 15.3472 16.5833 15.3469 16.5833 15.3467C16.5833 15.3464 16.5833 15.3462 16.5833 15.3459C16.5833 15.3457 16.5833 15.3454 16.5833 15.3452C16.5833 15.3449 16.5833 15.3447 16.5833 15.3445C16.5833 15.3443 16.5833 15.344 16.5833 15.3438C16.5833 15.3436 16.5833 15.3434 16.5833 15.3432C16.5833 15.343 16.5833 15.3427 16.5833 15.3425C16.5833 15.3423 16.5833 15.3422 16.5833 15.342C16.5833 15.3418 16.5833 15.3416 16.5833 15.3414C16.5833 15.3412 16.5833 15.341 16.5833 15.3409C16.5833 15.3407 16.5833 15.3405 16.5833 15.3403C16.5833 15.3402 16.5833 15.34 16.5833 15.3399C16.5833 15.3397 16.5833 15.3395 16.5833 15.3394C16.5833 15.3392 16.5833 15.3391 16.5833 15.3389C16.5833 15.3388 16.5833 15.3387 16.5833 15.3385C16.5833 15.3384 16.5833 15.3383 16.5833 15.3381C16.5833 15.338 16.5833 15.3379 16.5833 15.3378C16.5833 15.3376 16.5833 15.3375 16.5833 15.3374C16.5833 15.3373 16.5833 15.3372 16.5833 15.3371C16.5833 15.337 16.5833 15.3369 16.5833 15.3368C16.5833 15.3366 16.5833 15.3366 16.5833 15.3365C16.5833 15.3364 16.5833 15.3363 16.5833 15.3362C16.5833 15.3361 16.5833 15.336 16.5833 15.3359C16.5833 15.3358 16.5833 15.3358 16.5833 15.3357C16.5833 15.3356 16.5833 15.3355 16.5833 15.3355C16.5833 15.3354 16.5833 15.3353 16.5833 15.3352C16.5833 15.3352 16.5833 15.3351 16.5833 15.335C16.5833 15.335 16.5833 15.3349 16.5833 15.3349C16.5833 15.3348 16.5833 15.3348 16.5833 15.3347C16.5833 15.3347 16.5833 15.3346 16.5833 15.3346C16.5833 15.3345 16.5833 15.3345 16.5833 15.3344C16.5833 15.3344 16.5833 15.3343 16.5833 15.3343C16.5833 15.3343 16.5833 15.3342 16.5833 15.3342C16.5833 15.3341 16.5833 15.3341 16.5833 15.3341C16.5833 15.334 16.5833 15.334 16.5833 15.334C16.5833 15.334 16.5833 15.3339 16.5833 15.3339C16.5833 15.3339 16.5833 15.3339 16.5833 15.3338C16.5833 15.3338 16.5833 15.3338 16.5833 15.3338C16.5833 15.3337 16.5833 15.3337 16.5833 15.3337C16.5833 15.3337 16.5833 15.3337 16.5833 15.3337C16.5833 15.3337 16.5833 15.3336 16.5833 15.3336C16.5833 15.3336 16.5833 15.3336 16.5833 15.3336C16.5833 15.3336 16.5833 15.3336 16.5833 15.3336C16.5833 15.3336 16.5833 15.3336 16.5833 15.3335C16.5833 15.3335 16.5833 15.3335 16.5833 15.3335C16.5833 15.3335 16.5833 15.3335 16.5833 15.3335C16.5833 15.3335 16.5833 15.3335 16.5833 15.3335C16.5833 15.3335 16.5833 15.3335 16.5833 15.3335C16.5833 15.3335 16.5833 15.3335 16.5833 15.3335C16.5833 15.3335 16.5833 15.3335 16.5833 15.3335C16.5833 15.3335 16.5833 15.3335 16.5833 15.3335H15.3333ZM16.5833 15.3333V2H14.0833V15.3333H16.5833Z" fill="#707070"/>
</svg>
