<svg width="175" height="36" viewBox="0 0 175 36" fill="none" xmlns="http://www.w3.org/2000/svg">
<path d="M4.152 35.432C2.872 35.432 1.88 35.08 1.176 34.376C0.504 33.672 0.168 32.68 0.168 31.4V4.76C0.168 3.448 0.536 2.456 1.272 1.784C2.008 1.08 3.048 0.727998 4.392 0.727998C5.48 0.727998 6.36 0.951998 7.032 1.4C7.704 1.816 8.312 2.52 8.856 3.512L18.312 20.552L27.768 3.512C28.344 2.52 28.952 1.816 29.592 1.4C30.264 0.951998 31.16 0.727998 32.28 0.727998C33.528 0.727998 34.504 1.08 35.208 1.784C35.912 2.456 36.264 3.448 36.264 4.76V31.4C36.264 32.68 35.928 33.672 35.256 34.376C34.584 35.08 33.592 35.432 32.28 35.432C31 35.432 30.008 35.08 29.304 34.376C28.632 33.672 28.296 32.68 28.296 31.4V16.616L21.576 28.328C21.128 29.032 20.648 29.56 20.136 29.912C19.656 30.264 19 30.44 18.168 30.44C17.368 30.44 16.712 30.264 16.2 29.912C15.688 29.56 15.224 29.032 14.808 28.328L8.136 16.808V31.4C8.136 32.68 7.8 33.672 7.128 34.376C6.456 35.08 5.464 35.432 4.152 35.432ZM55.2139 35.528C52.3339 35.528 49.8379 35.032 47.7259 34.04C45.6459 33.016 44.0459 31.576 42.9259 29.72C41.8059 27.864 41.2459 25.672 41.2459 23.144C41.2459 20.744 41.7739 18.616 42.8299 16.76C43.9179 14.904 45.3899 13.464 47.2459 12.44C49.1339 11.384 51.2779 10.856 53.6779 10.856C56.0459 10.856 58.0939 11.352 59.8219 12.344C61.5819 13.336 62.9259 14.76 63.8539 16.616C64.8139 18.44 65.2939 20.584 65.2939 23.048C65.2939 24.296 64.5579 24.92 63.0859 24.92H49.4059C49.6939 26.456 50.3339 27.56 51.3259 28.232C52.3179 28.904 53.6939 29.24 55.4539 29.24C56.1259 29.24 56.9259 29.16 57.8539 29C58.7819 28.84 59.6619 28.584 60.4939 28.232C61.5179 27.848 62.3819 27.848 63.0859 28.232C63.7899 28.584 64.2539 29.144 64.4779 29.912C64.7339 30.648 64.7019 31.416 64.3819 32.216C64.0939 32.984 63.5019 33.576 62.6059 33.992C61.4859 34.536 60.2859 34.92 59.0059 35.144C57.7579 35.4 56.4939 35.528 55.2139 35.528ZM54.0619 16.376C52.7819 16.376 51.7259 16.76 50.8939 17.528C50.0939 18.296 49.5819 19.416 49.3579 20.888H58.2859C58.1899 19.384 57.7739 18.264 57.0379 17.528C56.3339 16.76 55.3419 16.376 54.0619 16.376ZM79.1295 35.432C77.7535 35.432 76.6975 35.064 75.9615 34.328C75.2255 33.592 74.8575 32.52 74.8575 31.112V18.056H70.4415C68.0735 18.056 66.8895 16.936 66.8895 14.696C66.8895 12.488 68.0735 11.384 70.4415 11.384H87.8175C90.1855 11.384 91.3695 12.488 91.3695 14.696C91.3695 16.936 90.1855 18.056 87.8175 18.056H83.4015V31.112C83.4015 33.992 81.9775 35.432 79.1295 35.432ZM98.1285 35.432C95.5045 35.432 94.1925 33.928 94.1925 30.92V14.984C94.1925 13.672 94.5285 12.68 95.2005 12.008C95.8725 11.304 96.8325 10.952 98.0805 10.952C100.609 10.952 101.873 12.296 101.873 14.984V24.152L109.841 13.64C110.289 13.064 110.865 12.472 111.569 11.864C112.305 11.256 113.329 10.952 114.641 10.952C117.265 10.952 118.577 12.456 118.577 15.464V31.4C118.577 32.68 118.241 33.672 117.569 34.376C116.929 35.08 115.985 35.432 114.737 35.432C113.489 35.432 112.529 35.08 111.857 34.376C111.217 33.672 110.897 32.68 110.897 31.4V22.232L102.929 32.744C102.513 33.32 101.937 33.912 101.201 34.52C100.497 35.128 99.4725 35.432 98.1285 35.432ZM128.605 35.432C127.229 35.432 126.173 35.064 125.437 34.328C124.701 33.592 124.333 32.52 124.333 31.112V15.224C124.333 13.848 124.701 12.792 125.437 12.056C126.173 11.32 127.229 10.952 128.605 10.952C131.453 10.952 132.877 12.376 132.877 15.224V19.688H140.413V15.224C140.413 12.376 141.837 10.952 144.685 10.952C146.061 10.952 147.117 11.32 147.853 12.056C148.589 12.792 148.957 13.848 148.957 15.224V31.112C148.957 32.52 148.589 33.592 147.853 34.328C147.117 35.064 146.061 35.432 144.685 35.432C143.309 35.432 142.253 35.064 141.517 34.328C140.781 33.592 140.413 32.52 140.413 31.112V26.264H132.877V31.112C132.877 33.992 131.453 35.432 128.605 35.432ZM166.804 35.528C164.148 35.528 161.828 35.032 159.844 34.04C157.892 33.048 156.372 31.624 155.284 29.768C154.196 27.912 153.652 25.704 153.652 23.144C153.652 20.584 154.196 18.392 155.284 16.568C156.372 14.712 157.892 13.304 159.844 12.344C161.828 11.352 164.148 10.856 166.804 10.856C167.732 10.856 168.708 10.952 169.732 11.144C170.756 11.304 171.812 11.624 172.9 12.104C173.636 12.392 174.164 12.84 174.484 13.448C174.804 14.024 174.932 14.648 174.868 15.32C174.836 15.992 174.644 16.6 174.292 17.144C173.972 17.688 173.508 18.056 172.9 18.248C172.324 18.44 171.668 18.36 170.932 18.008C169.876 17.528 168.804 17.288 167.716 17.288C166.02 17.288 164.708 17.8 163.78 18.824C162.852 19.848 162.388 21.288 162.388 23.144C162.388 25.032 162.852 26.504 163.78 27.56C164.708 28.584 166.02 29.096 167.716 29.096C168.228 29.096 168.756 29.048 169.3 28.952C169.844 28.824 170.388 28.632 170.932 28.376C171.7 28.024 172.356 27.96 172.9 28.184C173.476 28.376 173.924 28.744 174.244 29.288C174.596 29.8 174.788 30.392 174.82 31.064C174.884 31.736 174.756 32.376 174.436 32.984C174.116 33.56 173.572 33.992 172.804 34.28C171.716 34.76 170.676 35.08 169.684 35.24C168.692 35.432 167.732 35.528 166.804 35.528Z" fill="url(#paint0_linear_1575_14)"/>
<defs>
<linearGradient id="paint0_linear_1575_14" x1="-3" y1="52" x2="111.235" y2="-72.4493" gradientUnits="userSpaceOnUse">
<stop stop-color="#50F2C4"/>
<stop offset="0.396745" stop-color="#26D0E3"/>
<stop offset="1" stop-color="#757AFF"/>
</linearGradient>
</defs>
</svg>
