<svg width="178" height="36" viewBox="0 0 178 36" fill="none" xmlns="http://www.w3.org/2000/svg">
<path d="M4.152 35.432C2.872 35.432 1.88 35.08 1.176 34.376C0.504 33.672 0.168 32.68 0.168 31.4V4.76C0.168 3.448 0.536 2.456 1.272 1.784C2.008 1.08 3.048 0.727998 4.392 0.727998C5.48 0.727998 6.36 0.951998 7.032 1.4C7.704 1.816 8.312 2.52 8.856 3.512L18.312 20.552L27.768 3.512C28.344 2.52 28.952 1.816 29.592 1.4C30.264 0.951998 31.16 0.727998 32.28 0.727998C33.528 0.727998 34.504 1.08 35.208 1.784C35.912 2.456 36.264 3.448 36.264 4.76V31.4C36.264 32.68 35.928 33.672 35.256 34.376C34.584 35.08 33.592 35.432 32.28 35.432C31 35.432 30.008 35.08 29.304 34.376C28.632 33.672 28.296 32.68 28.296 31.4V16.616L21.576 28.328C21.128 29.032 20.648 29.56 20.136 29.912C19.656 30.264 19 30.44 18.168 30.44C17.368 30.44 16.712 30.264 16.2 29.912C15.688 29.56 15.224 29.032 14.808 28.328L8.136 16.808V31.4C8.136 32.68 7.8 33.672 7.128 34.376C6.456 35.08 5.464 35.432 4.152 35.432ZM46.2379 35.432C43.6139 35.432 42.3019 33.928 42.3019 30.92V14.984C42.3019 13.672 42.6379 12.68 43.3099 12.008C43.9819 11.304 44.9419 10.952 46.1899 10.952C48.7179 10.952 49.9819 12.296 49.9819 14.984V24.152L57.9499 13.64C58.3979 13.064 58.9739 12.472 59.6779 11.864C60.4139 11.256 61.4379 10.952 62.7499 10.952C65.3739 10.952 66.6859 12.456 66.6859 15.464V31.4C66.6859 32.68 66.3499 33.672 65.6779 34.376C65.0379 35.08 64.0939 35.432 62.8459 35.432C61.5979 35.432 60.6379 35.08 59.9659 34.376C59.3259 33.672 59.0059 32.68 59.0059 31.4V22.232L51.0379 32.744C50.6219 33.32 50.0459 33.912 49.3099 34.52C48.6059 35.128 47.5819 35.432 46.2379 35.432ZM81.7545 35.432C80.3785 35.432 79.3225 35.064 78.5865 34.328C77.8505 33.592 77.4825 32.52 77.4825 31.112V18.056H73.0665C70.6985 18.056 69.5145 16.936 69.5145 14.696C69.5145 12.488 70.6985 11.384 73.0665 11.384H90.4425C92.8105 11.384 93.9945 12.488 93.9945 14.696C93.9945 16.936 92.8105 18.056 90.4425 18.056H86.0265V31.112C86.0265 33.992 84.6025 35.432 81.7545 35.432ZM100.754 35.432C98.1295 35.432 96.8175 33.928 96.8175 30.92V14.984C96.8175 13.672 97.1535 12.68 97.8255 12.008C98.4975 11.304 99.4575 10.952 100.706 10.952C103.234 10.952 104.498 12.296 104.498 14.984V24.152L112.466 13.64C112.914 13.064 113.49 12.472 114.194 11.864C114.93 11.256 115.954 10.952 117.266 10.952C119.89 10.952 121.202 12.456 121.202 15.464V31.4C121.202 32.68 120.866 33.672 120.194 34.376C119.554 35.08 118.61 35.432 117.362 35.432C116.114 35.432 115.154 35.08 114.482 34.376C113.842 33.672 113.522 32.68 113.522 31.4V22.232L105.554 32.744C105.138 33.32 104.562 33.912 103.826 34.52C103.122 35.128 102.098 35.432 100.754 35.432ZM131.23 35.432C129.854 35.432 128.798 35.064 128.062 34.328C127.326 33.592 126.958 32.52 126.958 31.112V15.224C126.958 13.848 127.326 12.792 128.062 12.056C128.798 11.32 129.854 10.952 131.23 10.952C134.078 10.952 135.502 12.376 135.502 15.224V19.688H143.038V15.224C143.038 12.376 144.462 10.952 147.31 10.952C148.686 10.952 149.742 11.32 150.478 12.056C151.214 12.792 151.582 13.848 151.582 15.224V31.112C151.582 32.52 151.214 33.592 150.478 34.328C149.742 35.064 148.686 35.432 147.31 35.432C145.934 35.432 144.878 35.064 144.142 34.328C143.406 33.592 143.038 32.52 143.038 31.112V26.264H135.502V31.112C135.502 33.992 134.078 35.432 131.23 35.432ZM169.429 35.528C166.773 35.528 164.453 35.032 162.469 34.04C160.517 33.048 158.997 31.624 157.909 29.768C156.821 27.912 156.277 25.704 156.277 23.144C156.277 20.584 156.821 18.392 157.909 16.568C158.997 14.712 160.517 13.304 162.469 12.344C164.453 11.352 166.773 10.856 169.429 10.856C170.357 10.856 171.333 10.952 172.357 11.144C173.381 11.304 174.437 11.624 175.525 12.104C176.261 12.392 176.789 12.84 177.109 13.448C177.429 14.024 177.557 14.648 177.493 15.32C177.461 15.992 177.269 16.6 176.917 17.144C176.597 17.688 176.133 18.056 175.525 18.248C174.949 18.44 174.293 18.36 173.557 18.008C172.501 17.528 171.429 17.288 170.341 17.288C168.645 17.288 167.333 17.8 166.405 18.824C165.477 19.848 165.013 21.288 165.013 23.144C165.013 25.032 165.477 26.504 166.405 27.56C167.333 28.584 168.645 29.096 170.341 29.096C170.853 29.096 171.381 29.048 171.925 28.952C172.469 28.824 173.013 28.632 173.557 28.376C174.325 28.024 174.981 27.96 175.525 28.184C176.101 28.376 176.549 28.744 176.869 29.288C177.221 29.8 177.413 30.392 177.445 31.064C177.509 31.736 177.381 32.376 177.061 32.984C176.741 33.56 176.197 33.992 175.429 34.28C174.341 34.76 173.301 35.08 172.309 35.24C171.317 35.432 170.357 35.528 169.429 35.528Z" fill="url(#paint0_linear_1537_13758)"/>
<defs>
<linearGradient id="paint0_linear_1537_13758" x1="-3" y1="52" x2="111.057" y2="-74.3382" gradientUnits="userSpaceOnUse">
<stop stop-color="#50F2C4"/>
<stop offset="0.396745" stop-color="#26D0E3"/>
<stop offset="1" stop-color="#757AFF"/>
</linearGradient>
</defs>
</svg>
