<svg width="135" height="35" viewBox="0 0 135 35" fill="none" xmlns="http://www.w3.org/2000/svg">
<mask id="mask0_2552_276" style="mask-type:alpha" maskUnits="userSpaceOnUse" x="0" y="0" width="135" height="35">
<path d="M13.2148 8.57636C15.6245 8.57636 17.578 6.65647 17.578 4.28818C17.578 1.91988 15.6245 0 13.2148 0C10.805 0 8.85156 1.91988 8.85156 4.28818C8.85156 6.65647 10.805 8.57636 13.2148 8.57636Z" fill="white"/>
<path d="M30.7304 8.57636C33.1402 8.57636 35.0937 6.65647 35.0937 4.28818C35.0937 1.91988 33.1402 0 30.7304 0C28.3207 0 26.3672 1.91988 26.3672 4.28818C26.3672 6.65647 28.3207 8.57636 30.7304 8.57636Z" fill="white"/>
<path d="M41.783 34.3478C40.8864 34.8571 39.8355 35.0386 38.8159 34.8602C37.7963 34.6818 36.8737 34.155 36.211 33.3729L30.8099 24.175L30.4886 23.6286C30.379 23.4434 30.2517 23.2689 30.1086 23.1073C29.6186 22.5695 28.9554 22.2137 28.2301 22.0996C27.5048 21.9855 26.7616 22.1201 26.1253 22.4808L26.059 22.5184C25.3734 22.9079 24.8594 23.5339 24.6167 24.2748C24.3741 25.0157 24.4201 25.8188 24.7457 26.5283C24.789 26.626 24.8376 26.7214 24.8911 26.814L26.0539 28.794C26.528 29.7814 26.5983 30.91 26.2503 31.9468C26.0659 32.5198 25.7633 33.0493 25.3613 33.5022C24.9593 33.955 24.4667 34.3216 23.9141 34.5789C23.3615 34.8362 22.7608 34.9787 22.1496 34.9976C21.5385 35.0165 20.9299 34.9113 20.3619 34.6886C19.794 34.4659 19.2788 34.1305 18.8487 33.7034C18.4186 33.2762 18.0827 32.7665 17.8621 32.206C17.6415 31.6455 17.5408 31.0463 17.5664 30.4459C17.592 29.8455 17.7433 29.2567 18.0109 28.7163L18.0262 28.6862L19.1431 26.7865C19.1788 26.7213 19.2171 26.6587 19.2477 26.596C19.6002 25.8824 19.6647 25.0641 19.4282 24.3057C19.1916 23.5473 18.6715 22.9051 17.9726 22.5083H17.9548C17.5917 22.3021 17.1908 22.1683 16.775 22.1146C16.3593 22.0608 15.9368 22.0881 15.5318 22.195C15.1268 22.3018 14.7471 22.4861 14.4147 22.7372C14.0822 22.9884 13.8033 23.3015 13.5941 23.6587L13.2447 24.2527L8.20063 32.7789C7.61797 33.771 6.65818 34.4949 5.53241 34.7915C4.40664 35.0881 3.2071 34.933 2.19768 34.3603C1.18825 33.7877 0.451633 32.8444 0.149865 31.738C-0.151903 30.6316 0.00589863 29.4527 0.588557 28.4607L9.41193 13.4407C9.94874 12.5158 10.8185 11.822 11.8498 11.4959C11.9416 11.4658 12.0334 11.4383 12.1278 11.4157C12.3024 11.3714 12.4795 11.337 12.6582 11.313C12.8525 11.2858 13.0485 11.2724 13.2447 11.2729C14.0167 11.2716 14.7753 11.4707 15.4439 11.8501C16.1124 12.2294 16.6672 12.7755 17.0521 13.4332L22.012 21.8768L26.7909 13.7315L26.9745 13.4182C27.3575 12.7633 27.909 12.2189 28.5737 11.8397C29.2384 11.4605 29.9929 11.2598 30.7614 11.2578H30.7818C30.9643 11.2582 31.1466 11.2699 31.3276 11.2929C31.4092 11.3029 31.4942 11.3155 31.5826 11.3305L31.8095 11.3781C32.3879 11.5156 32.9316 11.7674 33.4078 12.1182C33.8839 12.4689 34.2824 12.9112 34.5789 13.4182L34.7625 13.7315L43.4023 28.4381C43.6921 28.9303 43.8801 29.4739 43.9555 30.0377C44.0309 30.6016 43.9923 31.1745 43.8419 31.7236C43.6914 32.2727 43.4321 32.7872 43.0788 33.2375C42.7254 33.6879 42.2851 34.0652 41.783 34.3478V34.3478Z" fill="white"/>
<path d="M53.9053 30.5862C54.071 30.6384 54.2421 30.672 54.4154 30.6865C54.5811 30.7015 54.7494 30.709 54.9254 30.709C55.3336 30.7109 55.7399 30.6543 56.1316 30.5411C56.5165 30.4293 56.8838 30.2657 57.223 30.0549C57.5634 29.8429 57.8702 29.5828 58.1334 29.283L58.8984 28.3983L60.9105 30.3832C61.0543 30.5241 61.1684 30.6914 61.2462 30.8757C61.3241 31.06 61.3642 31.2576 61.3642 31.4571C61.3642 31.6567 61.3241 31.8542 61.2462 32.0385C61.1684 32.2228 61.0543 32.3902 60.9105 32.531C60.7906 32.6463 60.6555 32.7591 60.5382 32.8694C60.0256 33.3078 59.4625 33.6855 58.8602 33.9947C58.2579 34.3029 57.6201 34.5385 56.9604 34.6964C56.2923 34.855 55.6075 34.9349 54.9203 34.9345C53.7945 34.9426 52.6783 34.73 51.637 34.3092C50.5958 33.8883 49.6504 33.2676 48.8561 32.4834C48.0633 31.6924 47.4368 30.7556 47.0124 29.7266C46.5515 28.6129 46.3218 27.42 46.3366 26.2178C46.3236 24.9948 46.5558 23.7812 47.02 22.6464C47.4288 21.6251 48.0451 20.6963 48.8312 19.9168C49.6173 19.1373 50.5568 18.5234 51.5924 18.1126C52.6509 17.6918 53.7836 17.4806 54.9254 17.4911C55.6184 17.4911 56.3088 17.5753 56.9808 17.7417C58.3098 18.0661 59.5407 18.6976 60.5713 19.5838V19.5838C60.9834 19.936 61.2388 20.4328 61.2826 20.9678C61.3265 21.5028 61.1553 22.0334 60.8059 22.4459L53.9053 30.5862ZM56.101 21.9046C55.9109 21.8356 55.7132 21.7894 55.5119 21.7667C55.312 21.7463 55.1111 21.7362 54.9101 21.7367C54.3426 21.7331 53.78 21.8404 53.2551 22.0525C52.7451 22.2567 52.2846 22.5641 51.9035 22.9547C51.5119 23.3623 51.206 23.8418 51.0033 24.3657C50.775 24.9588 50.6626 25.5888 50.6718 26.2228C50.6718 26.3757 50.6718 26.5512 50.6973 26.7466C50.7228 26.9421 50.7381 27.1401 50.7738 27.3406C50.8095 27.5411 50.8554 27.7341 50.909 27.9196C50.9547 28.0946 51.0233 28.2631 51.113 28.4208L56.101 21.9046Z" fill="white"/>
<path d="M70.6544 30.5861C70.8202 30.6378 70.9912 30.6714 71.1644 30.6864C71.3327 30.7014 71.4985 30.7089 71.6744 30.7089C72.0835 30.7106 72.4906 30.6541 72.8832 30.541C73.2673 30.4292 73.6337 30.2656 73.9721 30.0548C74.3135 29.8442 74.6204 29.5839 74.8825 29.2829L75.6603 28.3982L77.6774 30.3907C77.8204 30.5304 77.9339 30.6966 78.0114 30.8796C78.0888 31.0626 78.1287 31.2588 78.1287 31.4571C78.1287 31.6553 78.0888 31.8515 78.0114 32.0345C77.9339 32.2176 77.8204 32.3837 77.6774 32.5235C77.555 32.6413 77.4224 32.7565 77.2974 32.8693C76.784 33.3077 76.2199 33.6854 75.6169 33.9946C75.0156 34.3028 74.3785 34.5384 73.7196 34.6964C73.0516 34.8549 72.3668 34.9348 71.6795 34.9345C70.5538 34.942 69.4378 34.7292 68.3966 34.3083C67.3555 33.8875 66.41 33.2671 65.6154 32.4834C64.8242 31.691 64.198 30.7545 63.7716 29.7265C63.3131 28.6123 63.0843 27.4196 63.0984 26.2178C63.0827 24.9938 63.3115 23.7788 63.7716 22.6414C64.1803 21.6195 64.7968 20.6904 65.5834 19.9109C66.3701 19.1313 67.3103 18.5177 68.3465 18.1076C69.3991 17.691 70.5245 17.4815 71.6591 17.491C72.3522 17.4908 73.0426 17.575 73.7145 17.7417C74.3765 17.9035 75.0168 18.1416 75.622 18.4509C76.2268 18.7628 76.7925 19.1429 77.3076 19.5837C77.7186 19.9367 77.9731 20.4333 78.0169 20.9679C78.0607 21.5026 77.8904 22.0329 77.5422 22.4459L70.6544 30.5861ZM72.8526 21.9045C72.6625 21.8356 72.4648 21.7893 72.2635 21.7667C72.0627 21.7463 71.861 21.7362 71.6591 21.7366C71.0916 21.733 70.529 21.8404 70.0041 22.0524C69.4953 22.2573 69.0357 22.5646 68.6551 22.9546C68.2618 23.3614 67.955 23.8411 67.7524 24.3656C67.525 24.9589 67.4134 25.5889 67.4234 26.2228C67.4234 26.3757 67.4234 26.5511 67.4463 26.7466C67.4693 26.9421 67.4897 27.1401 67.5254 27.3406C67.5611 27.5411 67.607 27.734 67.658 27.9195C67.7049 28.0942 67.7734 28.2625 67.862 28.4207L72.8526 21.9045Z" fill="white"/>
<path d="M89.2627 34.6264C88.26 34.6329 87.2669 34.4358 86.3453 34.0475C84.5394 33.2953 83.1019 31.8825 82.3366 30.1077C81.9415 29.202 81.741 28.2259 81.7475 27.2405V22.3383H79.6641V18.1429H81.75V15.7369C81.75 15.1861 81.8605 14.6406 82.075 14.1317C82.2896 13.6229 82.6041 13.1605 83.0005 12.7711C83.397 12.3818 83.8676 12.073 84.3855 11.8624C84.9034 11.6518 85.4585 11.5436 86.0189 11.5439V11.5439V18.1429H92.5141V22.3383H86.0164V27.2405C86.0141 27.6669 86.1009 28.0891 86.2714 28.4811C86.4344 28.8556 86.669 29.196 86.9625 29.4836C87.2599 29.7753 87.6113 30.0084 87.9978 30.1703C88.4004 30.3403 88.8347 30.4256 89.2729 30.421H92.5217V33.1001C92.5217 33.4989 92.3605 33.8814 92.0736 34.1634C91.7866 34.4454 91.3974 34.6039 90.9916 34.6039L89.2627 34.6264Z" fill="white"/>
<path d="M99.9612 13.624C99.9638 14.0007 99.8865 14.3737 99.7342 14.7193C99.5873 15.0513 99.377 15.3525 99.1145 15.6065C98.8492 15.8613 98.5379 16.0653 98.1965 16.208C97.8414 16.3552 97.4599 16.4311 97.0744 16.4311C96.689 16.4311 96.3075 16.3552 95.9524 16.208C95.6126 16.0665 95.3036 15.8623 95.042 15.6065C94.7835 15.3508 94.576 15.0499 94.43 14.7193C94.2803 14.3746 94.2031 14.0038 94.2031 13.6291C94.2031 13.2543 94.2803 12.8835 94.43 12.5388C94.7191 11.8595 95.2688 11.3193 95.96 11.0351C96.3152 10.8879 96.6967 10.812 97.0821 10.812C97.4675 10.812 97.849 10.8879 98.2041 11.0351C98.5455 11.1778 98.8569 11.3817 99.1222 11.6366C99.3859 11.8924 99.5964 12.1963 99.7419 12.5313C99.8908 12.8768 99.9655 13.2488 99.9612 13.624V13.624ZM97.6661 34.6263H94.9094V18.1127H99.2242V33.1025C99.2242 33.3027 99.1841 33.5008 99.1062 33.6857C99.0282 33.8706 98.914 34.0385 98.7701 34.18C98.6261 34.3215 98.4552 34.4338 98.2671 34.5103C98.0789 34.5869 97.8773 34.6263 97.6737 34.6263H97.6661Z" fill="white"/>
<path d="M105.228 34.6261H102.484V18.1125C102.809 18.1122 103.131 18.1808 103.427 18.3135C103.722 18.4463 103.985 18.6402 104.198 18.8819L104.932 19.7165C105.618 19.103 106.414 18.6195 107.279 18.2905C108.151 17.9554 109.08 17.7853 110.017 17.7892C111.015 17.7829 112.003 17.9791 112.919 18.3656C113.811 18.7392 114.621 19.2788 115.304 19.9546C115.988 20.6331 116.534 21.4335 116.913 22.313C117.305 23.2229 117.505 24.2019 117.499 25.1901V33.1074C117.499 33.5102 117.337 33.8965 117.047 34.1813C116.757 34.4661 116.364 34.6261 115.954 34.6261H113.218V25.1901C113.22 24.7687 113.133 24.3515 112.963 23.9646C112.801 23.5902 112.567 23.2499 112.274 22.9621C111.981 22.6747 111.635 22.4442 111.254 22.2829C110.863 22.1159 110.441 22.0306 110.015 22.0323C109.155 22.0316 108.33 22.3649 107.72 22.9596C107.426 23.2467 107.192 23.5872 107.031 23.9621C106.861 24.349 106.774 24.7662 106.776 25.1876V33.1099C106.778 33.3099 106.739 33.5082 106.662 33.6933C106.585 33.8783 106.47 34.0464 106.326 34.1876C106.182 34.3288 106.011 34.4403 105.822 34.5156C105.634 34.5909 105.432 34.6285 105.228 34.6261V34.6261Z" fill="white"/>
<path d="M129.669 34.6111H119.879C119.879 33.4989 120.328 32.4321 121.128 31.6454C121.928 30.8587 123.013 30.4164 124.145 30.4157H129.669C129.951 30.4144 130.221 30.3036 130.421 30.1074C130.621 29.9112 130.733 29.6455 130.735 29.3681C130.751 29.2505 130.729 29.1309 130.673 29.0259C130.617 28.9209 130.529 28.8355 130.421 28.7816C130.183 28.6838 129.927 28.6368 129.669 28.6438H125.211C124.494 28.648 123.784 28.5064 123.125 28.2278C121.846 27.689 120.831 26.6823 120.295 25.4208C120.02 24.7705 119.879 24.0734 119.879 23.3694C119.879 22.6654 120.02 21.9683 120.295 21.318C120.831 20.0622 121.847 19.0634 123.125 18.5361C123.785 18.2611 124.495 18.1221 125.211 18.1276H129.62C130.752 18.1276 131.837 18.5693 132.638 19.3555C133.438 20.1418 133.889 21.2083 133.889 22.3205H125.219C124.936 22.3219 124.665 22.433 124.466 22.6297C124.266 22.8264 124.154 23.0928 124.153 23.3707C124.152 23.5102 124.179 23.6485 124.233 23.7776C124.287 23.9067 124.366 24.024 124.467 24.1225C124.564 24.2249 124.683 24.3059 124.815 24.3603C124.947 24.4147 125.089 24.4413 125.232 24.4383H129.669C130.376 24.4347 131.077 24.5578 131.739 24.8017C132.364 25.0267 132.938 25.367 133.433 25.8042C133.934 26.2569 134.332 26.8082 134.602 27.4222C134.872 28.0363 135.007 28.6993 134.999 29.3681C135.004 30.0708 134.859 30.7667 134.573 31.4107C134.3 32.0313 133.911 32.5964 133.428 33.0773C132.943 33.5569 132.368 33.9391 131.734 34.2026C131.081 34.4748 130.378 34.6138 129.669 34.6111V34.6111Z" fill="white"/>
</mask>
<g mask="url(#mask0_2552_276)">
<rect width="135" height="35" fill="url(#paint0_linear_2552_276)"/>
</g>
<defs>
<linearGradient id="paint0_linear_2552_276" x1="0" y1="35" x2="56.6072" y2="-51.3756" gradientUnits="userSpaceOnUse">
<stop stop-color="#50F2C4"/>
<stop offset="0.396745" stop-color="#26D0E3"/>
<stop offset="1" stop-color="#757AFF"/>
</linearGradient>
</defs>
</svg>
