<svg width="135" height="135" viewBox="0 0 135 135" fill="none" xmlns="http://www.w3.org/2000/svg">
<path fill-rule="evenodd" clip-rule="evenodd" d="M61.875 45C60.9574 57.0259 51.4009 66.5824 39.375 67.5C51.4009 68.4176 60.9574 77.9741 61.875 90C62.7926 77.9741 72.3491 68.4176 84.375 67.5C72.3491 66.5824 62.7926 57.0259 61.875 45V45Z" stroke="#51A2F2" stroke-width="3" stroke-linecap="round" stroke-linejoin="round"/>
<path fill-rule="evenodd" clip-rule="evenodd" d="M90 28.125C89.5401 34.1374 84.7624 38.9151 78.75 39.375C84.7624 39.8349 89.5401 44.6126 90 50.625C90.4599 44.6126 95.2376 39.8349 101.25 39.375C95.2376 38.9151 90.4599 34.1374 90 28.125Z" stroke="#51A2F2" stroke-width="3" stroke-linecap="round" stroke-linejoin="round"/>
<path fill-rule="evenodd" clip-rule="evenodd" d="M90 106.875C89.5401 100.863 84.7624 96.0849 78.75 95.625C84.7624 95.1651 89.5401 90.3874 90 84.375C90.4599 90.3874 95.2376 95.1651 101.25 95.625C95.2376 96.0849 90.4599 100.863 90 106.875Z" stroke="#51A2F2" stroke-width="3" stroke-linecap="round" stroke-linejoin="round"/>
</svg>
