<svg width="135" height="135" viewBox="0 0 135 135" fill="none" xmlns="http://www.w3.org/2000/svg">
<path fill-rule="evenodd" clip-rule="evenodd" d="M80.8594 41.4844C80.8594 48.8626 74.8782 54.8438 67.5 54.8438C60.1218 54.8438 54.1406 48.8626 54.1406 41.4844C54.1406 34.1062 60.1218 28.125 67.5 28.125C74.8782 28.125 80.8594 34.1062 80.8594 41.4844Z" stroke="#51A2F2" stroke-width="3" stroke-linecap="round" stroke-linejoin="round"/>
<path fill-rule="evenodd" clip-rule="evenodd" d="M94.2188 88.7342C94.2188 98.8592 82.2544 107.111 67.5 107.111C52.7456 107.111 40.7812 98.8817 40.7812 88.7342C40.7812 78.5867 52.7456 70.3629 67.5 70.3629C82.2544 70.3629 94.2188 78.5867 94.2188 88.7342Z" stroke="#51A2F2" stroke-width="3" stroke-linecap="round" stroke-linejoin="round"/>
<path fill-rule="evenodd" clip-rule="evenodd" d="M109.124 53.7356C109.181 56.9899 107.265 59.9555 104.275 61.2406C101.284 62.5257 97.8138 61.8751 95.4921 59.5941C93.1704 57.3131 92.4584 53.8547 93.6904 50.8422C94.9224 47.8297 97.8537 45.8611 101.108 45.8606C105.496 45.8232 109.084 49.3482 109.124 53.7356V53.7356Z" stroke="#51A2F2" stroke-width="3" stroke-linecap="round" stroke-linejoin="round"/>
<path fill-rule="evenodd" clip-rule="evenodd" d="M25.8762 53.7356C25.8191 56.9899 27.7355 59.9555 30.7257 61.2406C33.716 62.5257 37.1865 61.8751 39.5082 59.5941C41.8299 57.3131 42.5418 53.8547 41.3098 50.8422C40.0779 47.8297 37.1466 45.8611 33.8919 45.8606C29.5044 45.8232 25.9164 49.3482 25.8762 53.7356Z" stroke="#51A2F2" stroke-width="3" stroke-linecap="round" stroke-linejoin="round"/>
<path d="M105.04 100.369C104.215 100.295 103.486 100.904 103.412 101.729C103.338 102.554 103.947 103.283 104.772 103.357L105.04 100.369ZM120.938 88.7343L122.429 88.8977C122.44 88.7889 122.44 88.6791 122.429 88.5704L120.938 88.7343ZM104.772 74.1172C103.947 74.1911 103.338 74.9199 103.412 75.745C103.486 76.5701 104.215 77.1791 105.04 77.1052L104.772 74.1172ZM30.2275 103.357C31.0527 103.283 31.6617 102.554 31.5878 101.729C31.5139 100.904 30.7851 100.295 29.96 100.369L30.2275 103.357ZM14.0625 88.7343L12.5715 88.5704C12.5595 88.6791 12.5595 88.7889 12.5714 88.8977L14.0625 88.7343ZM29.9599 77.1052C30.785 77.1791 31.5138 76.5701 31.5878 75.745C31.6617 74.9199 31.0527 74.1911 30.2276 74.1172L29.9599 77.1052ZM104.772 103.357C113.613 104.149 121.462 97.7209 122.429 88.8977L119.446 88.571C118.658 95.7702 112.254 101.015 105.04 100.369L104.772 103.357ZM122.429 88.5704C121.459 79.7496 113.611 73.3254 104.772 74.1172L105.04 77.1052C112.252 76.4591 118.655 81.701 119.446 88.8982L122.429 88.5704ZM29.96 100.369C22.7465 101.015 16.3423 95.7702 15.5536 88.571L12.5714 88.8977C13.538 97.7209 21.3869 104.149 30.2275 103.357L29.96 100.369ZM15.5535 88.8982C16.3447 81.701 22.7482 76.4591 29.9599 77.1052L30.2276 74.1172C21.3891 73.3254 13.5412 79.7496 12.5715 88.5704L15.5535 88.8982Z" fill="#51A2F2"/>
</svg>
