<svg width="130" height="81" fill="none" xmlns="http://www.w3.org/2000/svg"><path fill-rule="evenodd" clip-rule="evenodd" d="M116.424 43.62c-.054-.458.196-.849.559-.873 1.91-.127 3.489-.695 5.342-1.417h-.002s.008-.002.03-.012l.095-.042c.078-.035.183-.08.304-.13a8.77 8.77 0 0 1 .835-.307 3.05 3.05 0 0 1 .437-.1 1.08 1.08 0 0 1 .52.038c.107.04.291.133.439.361.165.256.197.538.177.747a1.283 1.283 0 0 1-.121.428 1.992 1.992 0 0 1-.171.286c-.867 1.225-1.828 2.33-2.778 3.4l-.35.393c-.837.94-1.655 1.858-2.417 2.842-.089.116-.514.727-.916 1.327-.199.295-.383.576-.51.779-.044.07-.078.125-.101.165-.073.226-.231.398-.442.445a.581.581 0 0 1-.507-.137c-.271-.222-.329-.555-.338-.703-.008-.141.015-.248.023-.285a.779.779 0 0 1 .033-.111 1.29 1.29 0 0 1 .082-.179c.044-.082.107-.186.174-.294.139-.221.334-.517.534-.816.395-.59.848-1.243.971-1.403.792-1.022 1.643-1.977 2.477-2.913l.347-.39a59.903 59.903 0 0 0 1.488-1.726c-1.786.693-3.447 1.278-5.459 1.412-.362.024-.7-.328-.755-.785Zm1.339 7.945.002-.005a.022.022 0 0 1-.002.005Z" fill="#51A2F2" fill-opacity=".2"/><path fill-rule="evenodd" clip-rule="evenodd" d="M64.386 12.762c1.652 1.254 3.062 3.584 3.644 5.742 1.767 6.552.305 14.033-1.003 19.71-1.039 4.509-2.12 8.265-3.758 12.01 1.554 3.31 3.447 6.156 5.655 8.394 3.79 3.842 8.555 5.938 14.247 5.452 11.643-.994 21.089-8.295 30.543-15.602 1.63-1.26 3.261-2.52 4.904-3.749.3-.225.714-.083.924.316.21.4.136.906-.164 1.13a366.213 366.213 0 0 0-4.843 3.706c-9.441 7.304-19.171 14.832-31.147 15.855-6.02.514-11.146-1.71-15.239-5.858-2.176-2.206-4.046-4.94-5.603-8.069a51.42 51.42 0 0 1-1.294 2.513C56.212 63.486 48.48 67.533 39.14 64.688c-9.495-2.892-18.671-9.512-26.89-16.138-3.468-2.796-6.492-5.59-9.209-9.608-.247-.366-.229-.887.042-1.162.27-.276.69-.203.938.164 2.573 3.805 5.451 6.479 8.87 9.236 8.2 6.61 17.2 13.082 26.444 15.897 8.773 2.672 16.011-1.078 20.8-9.791a49.304 49.304 0 0 0 1.61-3.194c-1.007-2.276-1.86-4.73-2.557-7.318-1.08-4.016-2.183-9.45-2.484-14.766-.3-5.29.186-10.613 2.409-14.255.716-1.174 1.59-1.793 2.55-1.905.946-.112 1.888.279 2.724.914Zm-1.912 35.656a49.668 49.668 0 0 1-2.03-6.034c-1.056-3.921-2.125-9.204-2.415-14.334-.292-5.155.211-10.006 2.168-13.213.553-.907 1.15-1.27 1.715-1.337.579-.068 1.216.164 1.867.659 1.323 1.004 2.516 2.957 2.996 4.736 1.612 5.977.295 12.983-1.027 18.722-.937 4.067-1.9 7.472-3.274 10.801Z" fill="#51A2F2" fill-opacity=".2"/></svg>