<svg width="24" height="24" fill="none" xmlns="http://www.w3.org/2000/svg"><path d="M11.997 5c1.617 0 3.101.554 4.286 1.474l3.637-3.47A11.94 11.94 0 0 0 11.998 0C7.389 0 3.394 2.6 1.383 6.41l4.044 3.193A6.996 6.996 0 0 1 11.997 5Z" fill="#F44336"/><path d="M23.896 13.502C23.96 13.011 24 12.51 24 12c0-.857-.094-1.693-.265-2.5H12v5h6.486a7.072 7.072 0 0 1-2.648 3.32l4.06 3.205a11.987 11.987 0 0 0 3.998-7.523Z" fill="#2196F3"/><path d="M5 12c0-.844.157-1.649.43-2.397L1.386 6.41A11.94 11.94 0 0 0 0 12c0 1.997.495 3.876 1.358 5.533l4.05-3.197A6.972 6.972 0 0 1 5 12Z" fill="#FFC107"/><path d="M11.997 19a6.997 6.997 0 0 1-6.592-4.665l-4.05 3.197C3.357 21.373 7.367 24 11.997 24c3.028 0 5.789-1.125 7.898-2.976l-4.06-3.205a6.832 6.832 0 0 1-3.838 1.18Z" fill="#00B060"/><path opacity=".1" d="M12 23.75a12.416 12.416 0 0 1-8.953-3.778C5.245 22.438 8.436 24 11.999 24a11.94 11.94 0 0 0 8.888-3.959A12.406 12.406 0 0 1 12 23.751ZM12 14.25v.25h6.486l.101-.25H12Z" fill="#000"/><path d="M23.996 12.147c.001-.05.006-.098.006-.147L24 11.959c-.001.063-.004.125-.004.188Z" fill="#E6E6E6"/><path opacity=".2" d="M12 9.5v.25h11.786a12.836 12.836 0 0 0-.05-.25H12Z" fill="#fff"/><path d="M23.735 9.5H12v5h6.486C17.477 17.122 14.977 19 12 19a7 7 0 0 1 0-14c1.402 0 2.694.43 3.789 1.14.167.11.34.212.497.334l3.637-3.47-.082-.063A11.93 11.93 0 0 0 12 0C5.373 0 0 5.373 0 12s5.373 12 12 12c6.118 0 11.155-4.581 11.896-10.498.063-.492.104-.993.104-1.502 0-.858-.094-1.693-.265-2.5Z" fill="url(#a)"/><path opacity=".1" d="M15.789 5.89A6.932 6.932 0 0 0 12 4.75a7 7 0 0 0-6.999 7.117A6.994 6.994 0 0 1 12 5c1.402 0 2.694.43 3.789 1.14.167.11.34.212.497.334l3.637-3.47-3.637 3.22c-.157-.122-.33-.225-.498-.333Z" fill="#000"/><path opacity=".2" d="M12 .25c2.975 0 5.683 1.098 7.78 2.892l.143-.138-.11-.096A11.829 11.829 0 0 0 12 0C5.373 0 0 5.373 0 12c0 .042.006.083.006.125C.074 5.555 5.415.25 12 .25Z" fill="#fff"/><defs><linearGradient id="a" x1="0" y1="12" x2="24" y2="12" gradientUnits="userSpaceOnUse"><stop stop-color="#fff" stop-opacity=".2"/><stop offset="1" stop-color="#fff" stop-opacity="0"/></linearGradient></defs></svg>