<svg width="24" height="24" fill="none" xmlns="http://www.w3.org/2000/svg"><path d="M12 24c6.627 0 12-5.373 12-12S18.627 0 12 0 0 5.373 0 12s5.373 12 12 12Z" fill="url(#a)"/><path d="M17.84 6.904 15.697 17.71s-.3.75-1.125.389l-4.945-3.792-1.8-.867-3.028-1.018s-.464-.164-.511-.525c-.047-.36.525-.553.525-.553l12.037-4.72c0-.005.99-.44.99.281Z" fill="#fff"/><path d="M9.24 17.588s-.145-.015-.324-.582c-.178-.567-1.092-3.567-1.092-3.567l7.27-4.617s.422-.253.404 0c0 0 .075.047-.15.253-.225.211-5.71 5.142-5.71 5.142" fill="#D2E4F0"/><path d="M11.523 15.76 9.57 17.544s-.155.117-.319.042l.375-3.314" fill="#B5CFE4"/><defs><linearGradient id="a" x1="12" y1="0" x2="12" y2="23.912" gradientUnits="userSpaceOnUse"><stop stop-color="#41BCE7"/><stop offset="1" stop-color="#22A6DC"/></linearGradient></defs></svg>