<svg width="24" height="24" fill="none" xmlns="http://www.w3.org/2000/svg"><path d="M12 24c6.627 0 12-5.373 12-12S18.627 0 12 0 0 5.373 0 12s5.373 12 12 12Z" fill="#4D76A1"/><path fill-rule="evenodd" clip-rule="evenodd" d="M11.547 17.264h.942s.286-.033.432-.188c.136-.145.131-.413.131-.413s-.019-1.265.567-1.448c.577-.183 1.322 1.219 2.11 1.763.595.407 1.045.318 1.045.318l2.105-.028s1.101-.065.576-.933c-.042-.07-.304-.642-1.565-1.809-1.318-1.223-1.144-1.027.445-3.145.97-1.29 1.354-2.077 1.233-2.414-.117-.324-.825-.235-.825-.235l-2.372.014s-.174-.023-.305.052c-.126.075-.21.253-.21.253s-.376.998-.877 1.847c-1.055 1.79-1.477 1.884-1.65 1.776-.404-.262-.3-1.04-.3-1.598 0-1.734.262-2.46-.511-2.648-.258-.061-.446-.104-1.107-.108-.843-.01-1.56 0-1.968.201-.268.132-.478.427-.352.44.155.02.511.1.699.352.243.329.234 1.074.234 1.074s.14 2.044-.328 2.297c-.319.173-.76-.183-1.697-1.805-.483-.834-.844-1.753-.844-1.753s-.07-.173-.197-.262c-.154-.113-.365-.146-.365-.146l-2.25.014s-.338.01-.464.155c-.108.131-.01.403-.01.403s1.763 4.125 3.76 6.202c1.842 1.898 3.918 1.771 3.918 1.771Z" fill="#fff"/></svg>