<svg width="16" height="16" fill="none" xmlns="http://www.w3.org/2000/svg"><path d="M1.75 11a.75.75 0 0 0-1.5 0h1.5ZM1 12H.25 1Zm14.75-1a.75.75 0 0 0-1.5 0h1.5ZM8.586 1.469A.75.75 0 1 0 7.414.53l1.172.938ZM3.414 5.53a.75.75 0 1 0 1.172.938L3.414 5.53Zm5.172-5a.75.75 0 1 0-1.172.938L8.586.53Zm2.828 5.938a.75.75 0 0 0 1.172-.938l-1.172.938ZM8.75 1a.75.75 0 0 0-1.5 0h1.5Zm-1.5 11a.75.75 0 0 0 1.5 0h-1.5Zm-7-1v1h1.5v-1H.25Zm0 1A3.75 3.75 0 0 0 4 15.75v-1.5A2.25 2.25 0 0 1 1.75 12H.25ZM4 15.75h8v-1.5H4v1.5Zm8 0A3.75 3.75 0 0 0 15.75 12h-1.5A2.25 2.25 0 0 1 12 14.25v1.5ZM15.75 12v-1h-1.5v1h1.5ZM7.414.531l-4 5 1.172.938 4-5L7.414.53Zm0 .938 4 5 1.172-.938-4-5-1.172.938ZM7.25 1v11h1.5V1h-1.5Z" fill="#707070"/></svg>