<svg width="135" height="135" fill="none" xmlns="http://www.w3.org/2000/svg"><path clip-rule="evenodd" d="M80.86 41.484c0 7.379-5.982 13.36-13.36 13.36-7.378 0-13.36-5.981-13.36-13.36 0-7.378 5.982-13.359 13.36-13.359 7.378 0 13.36 5.981 13.36 13.36ZM94.219 88.734c0 10.125-11.965 18.377-26.719 18.377-14.754 0-26.719-8.23-26.719-18.377 0-10.147 11.965-18.371 26.719-18.371 14.754 0 26.719 8.224 26.719 18.371ZM109.124 53.736a8.016 8.016 0 1 1-8.016-7.875 7.948 7.948 0 0 1 8.016 7.875v0ZM25.876 53.736a8.016 8.016 0 1 0 8.016-7.875 7.948 7.948 0 0 0-8.016 7.875Z" stroke="#51A2F2" stroke-width="3" stroke-linecap="round" stroke-linejoin="round"/><path d="M105.04 100.369a1.5 1.5 0 0 0-.268 2.988l.268-2.988Zm15.898-11.635 1.491.164a1.627 1.627 0 0 0 0-.328l-1.491.164Zm-16.166-14.617a1.5 1.5 0 1 0 .268 2.988l-.268-2.988Zm-74.544 29.24a1.5 1.5 0 0 0-.268-2.988l.267 2.988ZM14.062 88.734l-1.49-.164a1.499 1.499 0 0 0 0 .328l1.49-.164ZM29.96 77.105a1.5 1.5 0 0 0 .268-2.988l-.268 2.988Zm74.812 26.252c8.841.792 16.69-5.636 17.657-14.46l-2.983-.326c-.788 7.2-7.192 12.444-14.406 11.798l-.268 2.988Zm17.657-14.787c-.97-8.82-8.818-15.245-17.657-14.453l.268 2.988c7.212-.646 13.615 4.596 14.406 11.793l2.983-.328ZM29.96 100.37c-7.213.646-13.618-4.599-14.406-11.798l-2.983.327c.967 8.823 8.816 15.251 17.657 14.459l-.268-2.988Zm-14.407-11.47c.792-7.198 7.195-12.44 14.407-11.794l.268-2.988C21.389 73.325 13.54 79.75 12.57 88.57l2.982.328Z" fill="#51A2F2"/></svg>