<svg width="175" height="36" fill="none" xmlns="http://www.w3.org/2000/svg"><path d="M4.152 35.432c-1.28 0-2.272-.352-2.976-1.056C.504 33.672.168 32.68.168 31.4V4.76c0-1.312.368-2.304 1.104-2.976C2.008 1.08 3.048.728 4.392.728c1.088 0 1.968.224 2.64.672.672.416 1.28 1.12 1.824 2.112l9.456 17.04 9.456-17.04c.576-.992 1.184-1.696 1.824-2.112.672-.448 1.568-.672 2.688-.672 1.248 0 2.224.352 2.928 1.056.704.672 1.056 1.664 1.056 2.976V31.4c0 1.28-.336 2.272-1.008 2.976-.672.704-1.664 1.056-2.976 1.056-1.28 0-2.272-.352-2.976-1.056-.672-.704-1.008-1.696-1.008-2.976V16.616l-6.72 11.712c-.448.704-.928 1.232-1.44 1.584-.48.352-1.136.528-1.968.528-.8 0-1.456-.176-1.968-.528-.512-.352-.976-.88-1.392-1.584l-6.672-11.52V31.4c0 1.28-.336 2.272-1.008 2.976-.672.704-1.664 1.056-2.976 1.056Zm51.062.096c-2.88 0-5.376-.496-7.488-1.488-2.08-1.024-3.68-2.464-4.8-4.32-1.12-1.856-1.68-4.048-1.68-6.576 0-2.4.528-4.528 1.584-6.384 1.088-1.856 2.56-3.296 4.416-4.32 1.888-1.056 4.032-1.584 6.432-1.584 2.368 0 4.416.496 6.144 1.488 1.76.992 3.104 2.416 4.032 4.272.96 1.824 1.44 3.968 1.44 6.432 0 1.248-.736 1.872-2.208 1.872h-13.68c.288 1.536.928 2.64 1.92 3.312.992.672 2.368 1.008 4.128 1.008.672 0 1.472-.08 2.4-.24a11.97 11.97 0 0 0 2.64-.768c1.024-.384 1.888-.384 2.592 0 .704.352 1.168.912 1.392 1.68.256.736.224 1.504-.096 2.304-.288.768-.88 1.36-1.776 1.776-1.12.544-2.32.928-3.6 1.152a18.822 18.822 0 0 1-3.792.384Zm-1.152-19.152c-1.28 0-2.336.384-3.168 1.152-.8.768-1.312 1.888-1.536 3.36h8.928c-.096-1.504-.512-2.624-1.248-3.36-.704-.768-1.696-1.152-2.976-1.152Zm25.067 19.056c-1.376 0-2.431-.368-3.168-1.104-.736-.736-1.103-1.808-1.103-3.216V18.056h-4.416c-2.368 0-3.552-1.12-3.552-3.36 0-2.208 1.183-3.312 3.552-3.312h17.376c2.368 0 3.552 1.104 3.552 3.312 0 2.24-1.184 3.36-3.553 3.36h-4.415v13.056c0 2.88-1.424 4.32-4.273 4.32Zm19 0c-2.625 0-3.937-1.504-3.937-4.512V14.984c0-1.312.337-2.304 1.009-2.976.672-.704 1.632-1.056 2.88-1.056 2.528 0 3.792 1.344 3.792 4.032v9.168l7.968-10.512c.448-.576 1.024-1.168 1.728-1.776.736-.608 1.76-.912 3.072-.912 2.624 0 3.936 1.504 3.936 4.512V31.4c0 1.28-.336 2.272-1.008 2.976-.64.704-1.584 1.056-2.832 1.056-1.248 0-2.208-.352-2.88-1.056-.64-.704-.96-1.696-.96-2.976v-9.168l-7.968 10.512c-.416.576-.992 1.168-1.728 1.776-.704.608-1.728.912-3.072.912Zm30.476 0c-1.376 0-2.432-.368-3.168-1.104-.736-.736-1.104-1.808-1.104-3.216V15.224c0-1.376.368-2.432 1.104-3.168.736-.736 1.792-1.104 3.168-1.104 2.848 0 4.272 1.424 4.272 4.272v4.464h7.536v-4.464c0-2.848 1.424-4.272 4.272-4.272 1.376 0 2.432.368 3.168 1.104.736.736 1.104 1.792 1.104 3.168v15.888c0 1.408-.368 2.48-1.104 3.216-.736.736-1.792 1.104-3.168 1.104-1.376 0-2.432-.368-3.168-1.104-.736-.736-1.104-1.808-1.104-3.216v-4.848h-7.536v4.848c0 2.88-1.424 4.32-4.272 4.32Zm38.199.096c-2.656 0-4.976-.496-6.96-1.488-1.952-.992-3.472-2.416-4.56-4.272-1.088-1.856-1.632-4.064-1.632-6.624 0-2.56.544-4.752 1.632-6.576 1.088-1.856 2.608-3.264 4.56-4.224 1.984-.992 4.304-1.488 6.96-1.488.928 0 1.904.096 2.928.288 1.024.16 2.08.48 3.168.96.736.288 1.264.736 1.584 1.344.32.576.448 1.2.384 1.872a3.613 3.613 0 0 1-.576 1.824c-.32.544-.784.912-1.392 1.104-.576.192-1.232.112-1.968-.24-1.056-.48-2.128-.72-3.216-.72-1.696 0-3.008.512-3.936 1.536-.928 1.024-1.392 2.464-1.392 4.32 0 1.888.464 3.36 1.392 4.416.928 1.024 2.24 1.536 3.936 1.536a9.11 9.11 0 0 0 1.584-.144 8.291 8.291 0 0 0 1.632-.576c.768-.352 1.424-.416 1.968-.192.576.192 1.024.56 1.344 1.104.352.512.544 1.104.576 1.776a3.357 3.357 0 0 1-.384 1.92c-.32.576-.864 1.008-1.632 1.296-1.088.48-2.128.8-3.12.96-.992.192-1.952.288-2.88.288Z" fill="url(#a)"/><defs><linearGradient id="a" x1="-3" y1="52" x2="111.235" y2="-72.449" gradientUnits="userSpaceOnUse"><stop stop-color="#50F2C4"/><stop offset=".397" stop-color="#26D0E3"/><stop offset="1" stop-color="#757AFF"/></linearGradient></defs></svg>