<svg width="135" height="35" fill="none" xmlns="http://www.w3.org/2000/svg"><mask id="a" style="mask-type:alpha" maskUnits="userSpaceOnUse" x="0" y="0" width="135" height="35"><path d="M13.215 8.576c2.41 0 4.363-1.92 4.363-4.288C17.578 1.92 15.624 0 13.215 0c-2.41 0-4.363 1.92-4.363 4.288 0 2.368 1.953 4.288 4.363 4.288ZM30.73 8.576c2.41 0 4.364-1.92 4.364-4.288C35.094 1.92 33.14 0 30.73 0s-4.363 1.92-4.363 4.288c0 2.368 1.954 4.288 4.363 4.288ZM41.783 34.348c-.897.51-1.947.69-2.967.512a4.409 4.409 0 0 1-2.605-1.487l-5.401-9.198-.321-.546a3.393 3.393 0 0 0-.38-.522A3.217 3.217 0 0 0 28.23 22.1a3.248 3.248 0 0 0-2.105.38l-.066.038a3.152 3.152 0 0 0-1.442 1.757 3.091 3.091 0 0 0 .129 2.253c.043.098.092.193.145.286l1.163 1.98c.474.987.544 2.116.196 3.153a4.352 4.352 0 0 1-.889 1.555c-.402.453-.894.82-1.447 1.077a4.512 4.512 0 0 1-5.065-.876 4.364 4.364 0 0 1-.987-1.497 4.304 4.304 0 0 1 .149-3.49l.015-.03 1.117-1.9c.036-.065.074-.127.105-.19a3.09 3.09 0 0 0 .18-2.29 3.149 3.149 0 0 0-1.455-1.798h-.018a3.226 3.226 0 0 0-2.423-.313 3.212 3.212 0 0 0-1.117.542 3.152 3.152 0 0 0-.82.922l-.35.594L8.2 32.779a4.385 4.385 0 0 1-2.669 2.012 4.462 4.462 0 0 1-3.334-.43A4.33 4.33 0 0 1 .15 31.737a4.254 4.254 0 0 1 .439-3.277l8.823-15.02a4.32 4.32 0 0 1 2.438-1.945 4.702 4.702 0 0 1 1.395-.223 4.442 4.442 0 0 1 2.199.577c.668.38 1.223.925 1.608 1.583l4.96 8.444 4.779-8.145.183-.314c.384-.655.935-1.2 1.6-1.578a4.44 4.44 0 0 1 2.187-.582h.02a4.407 4.407 0 0 1 .802.073l.227.047c.578.138 1.122.39 1.598.74s.874.793 1.17 1.3l.184.314 8.64 14.706a4.267 4.267 0 0 1 .44 3.286 4.29 4.29 0 0 1-.763 1.513c-.354.45-.794.828-1.296 1.11ZM53.905 30.586c.166.052.337.086.51.1.166.015.334.023.51.023.409.002.815-.055 1.207-.168a4.385 4.385 0 0 0 1.091-.486c.34-.212.647-.472.91-.772l.765-.885 2.012 1.985a1.514 1.514 0 0 1 .454 1.074 1.493 1.493 0 0 1-.453 1.074c-.12.115-.255.228-.373.338a8.529 8.529 0 0 1-3.578 1.827 8.811 8.811 0 0 1-2.04.239 8.6 8.6 0 0 1-3.283-.626 8.482 8.482 0 0 1-2.78-1.826 8.443 8.443 0 0 1-1.845-2.756 8.887 8.887 0 0 1-.675-3.51 9.173 9.173 0 0 1 .683-3.57 8.067 8.067 0 0 1 1.811-2.73 8.23 8.23 0 0 1 2.761-1.804 8.805 8.805 0 0 1 3.333-.622c.693 0 1.384.084 2.056.25a8.653 8.653 0 0 1 3.59 1.843 2.03 2.03 0 0 1 .235 2.862l-6.9 8.14Zm2.196-8.681a2.57 2.57 0 0 0-.59-.138c-.199-.02-.4-.03-.6-.03a4.345 4.345 0 0 0-1.656.316c-.51.204-.97.511-1.352.902a4.251 4.251 0 0 0-.9 1.41 4.968 4.968 0 0 0-.331 1.858c0 .153 0 .328.025.524.026.195.041.393.077.594.035.2.081.393.135.579.046.175.114.343.204.5l4.988-6.515ZM70.654 30.586c.166.052.337.085.51.1.169.015.335.023.51.023a4.302 4.302 0 0 0 2.298-.654c.342-.21.648-.471.91-.772l.778-.885 2.017 1.993a1.503 1.503 0 0 1 .452 1.066 1.482 1.482 0 0 1-.452 1.066c-.122.118-.255.233-.38.346a8.702 8.702 0 0 1-1.68 1.126 8.51 8.51 0 0 1-1.897.701 8.82 8.82 0 0 1-2.04.239 8.609 8.609 0 0 1-3.283-.627 8.49 8.49 0 0 1-2.782-1.825 8.526 8.526 0 0 1-1.843-2.756 8.942 8.942 0 0 1-.674-3.51 9.22 9.22 0 0 1 .674-3.576 8.058 8.058 0 0 1 1.811-2.73 8.224 8.224 0 0 1 2.764-1.803 8.803 8.803 0 0 1 3.312-.617 8.764 8.764 0 0 1 3.963.96c.605.312 1.17.692 1.686 1.133a2.034 2.034 0 0 1 .235 2.862l-6.889 8.14Zm2.199-8.681a2.57 2.57 0 0 0-.59-.138c-.2-.02-.402-.03-.604-.03a4.347 4.347 0 0 0-1.655.315 3.942 3.942 0 0 0-1.349.903c-.393.406-.7.886-.903 1.41a4.969 4.969 0 0 0-.329 1.858c0 .153 0 .328.023.524.023.195.044.393.08.594.035.2.081.393.132.578.047.175.115.343.204.502l4.99-6.517ZM89.263 34.626a7.392 7.392 0 0 1-2.918-.578 7.492 7.492 0 0 1-4.008-3.94 7.052 7.052 0 0 1-.59-2.867v-4.903h-2.083v-4.195h2.086v-2.406c0-.55.11-1.096.325-1.605.215-.51.53-.971.925-1.36.397-.39.868-.699 1.385-.91a4.331 4.331 0 0 1 1.634-.318v6.599h6.495v4.195h-6.498v4.902c-.002.427.085.85.255 1.241.163.375.398.715.692 1.003.297.291.648.524 1.035.686.402.17.837.256 1.275.251h3.249v2.68c0 .398-.162.78-.448 1.062-.287.282-.677.44-1.082.44l-1.73.023ZM99.961 13.624a2.67 2.67 0 0 1-.227 1.095 2.826 2.826 0 0 1-.62.888 2.931 2.931 0 0 1-3.162.601 2.892 2.892 0 0 1-.91-.601 2.89 2.89 0 0 1-.612-.888 2.736 2.736 0 0 1 0-2.18c.29-.68.839-1.22 1.53-1.504a2.932 2.932 0 0 1 3.162.602c.264.255.474.56.62.894.149.346.224.718.22 1.093Zm-2.295 21.002H94.91V18.113h4.315v14.99a1.501 1.501 0 0 1-.454 1.077 1.552 1.552 0 0 1-1.096.446h-.008ZM105.228 34.626h-2.744V18.113a2.27 2.27 0 0 1 1.714.77l.734.834a7.543 7.543 0 0 1 2.347-1.426 7.547 7.547 0 0 1 2.738-.502 7.347 7.347 0 0 1 2.902.577 7.52 7.52 0 0 1 2.385 1.589 7.508 7.508 0 0 1 1.609 2.358 7.16 7.16 0 0 1 .586 2.877v7.917c0 .403-.162.79-.452 1.074a1.56 1.56 0 0 1-1.093.445h-2.736V25.19a3.01 3.01 0 0 0-.255-1.225 3.17 3.17 0 0 0-.689-1.003 3.285 3.285 0 0 0-1.02-.68 3.124 3.124 0 0 0-1.239-.25c-.86 0-1.685.333-2.295.928a3.125 3.125 0 0 0-.689 1.002 3.01 3.01 0 0 0-.255 1.226v7.922a1.48 1.48 0 0 1-.45 1.078 1.549 1.549 0 0 1-1.098.438ZM129.669 34.611h-9.79c0-1.112.449-2.179 1.249-2.966a4.307 4.307 0 0 1 3.017-1.23h5.524c.282 0 .552-.111.752-.308.2-.196.312-.462.314-.739a.565.565 0 0 0-.314-.586 1.846 1.846 0 0 0-.752-.138h-4.458a5.278 5.278 0 0 1-2.086-.416 5.305 5.305 0 0 1-2.83-2.807 5.265 5.265 0 0 1 0-4.103 5.244 5.244 0 0 1 2.83-2.782 5.32 5.32 0 0 1 2.086-.408h4.409c1.132 0 2.217.441 3.018 1.227a4.158 4.158 0 0 1 1.251 2.965h-8.67a1.079 1.079 0 0 0-.753.31 1.044 1.044 0 0 0 .001 1.492 1.037 1.037 0 0 0 .765.316h4.437a5.9 5.9 0 0 1 2.07.364 5.237 5.237 0 0 1 1.694 1.002 4.768 4.768 0 0 1 1.169 1.618c.27.614.405 1.277.397 1.946a4.944 4.944 0 0 1-.426 2.043 5.451 5.451 0 0 1-1.145 1.666 5.318 5.318 0 0 1-3.759 1.534Z" fill="#fff"/></mask><g mask="url(#a)"><path fill="url(#b)" d="M0 0h135v35H0z"/></g><defs><linearGradient id="b" x1="0" y1="35" x2="56.607" y2="-51.376" gradientUnits="userSpaceOnUse"><stop stop-color="#50F2C4"/><stop offset=".397" stop-color="#26D0E3"/><stop offset="1" stop-color="#757AFF"/></linearGradient></defs></svg>