<svg width="30" height="30" fill="none" xmlns="http://www.w3.org/2000/svg"><path d="M2 14.083a1.25 1.25 0 0 0 0 2.5v-2.5Zm13.333 2.5a1.25 1.25 0 1 0 0-2.5v2.5Zm-.001-2.5a1.25 1.25 0 0 0 0 2.5v-2.5Zm13.333 2.5a1.25 1.25 0 0 0 0-2.5v2.5Zm-12.082-1.25a1.25 1.25 0 1 0-2.5 0h2.5Zm-2.5 13.334a1.25 1.25 0 0 0 2.5 0h-2.5Zm0-13.334a1.25 1.25 0 0 0 2.5 0h-2.5ZM16.583 2a1.25 1.25 0 1 0-2.5 0h2.5ZM2 16.583h13.333v-2.5H2v2.5Zm13.332 0h13.333v-2.5H15.332v2.5Zm.001-1.25h-1.25V28.668h2.5V15.334h-1.25Zm1.25 0V2h-2.5v13.333h2.5Z" fill="#707070"/></svg>