<svg width="16" height="16" viewBox="0 0 16 16" fill="none" xmlns="http://www.w3.org/2000/svg">
<path d="M1.75 11C1.75 10.5858 1.41421 10.25 1 10.25C0.585786 10.25 0.25 10.5858 0.25 11H1.75ZM1 12H0.25H1ZM15.75 11C15.75 10.5858 15.4142 10.25 15 10.25C14.5858 10.25 14.25 10.5858 14.25 11H15.75ZM8.58565 1.46852C8.84441 1.14507 8.79197 0.673106 8.46852 0.414348C8.14507 0.155591 7.67311 0.208032 7.41435 0.531479L8.58565 1.46852ZM3.41435 5.53148C3.15559 5.85493 3.20803 6.32689 3.53148 6.58565C3.85493 6.84441 4.32689 6.79197 4.58565 6.46852L3.41435 5.53148ZM8.58565 0.531479C8.32689 0.208032 7.85493 0.155591 7.53148 0.414348C7.20803 0.673106 7.15559 1.14507 7.41435 1.46852L8.58565 0.531479ZM11.4143 6.46852C11.6731 6.79197 12.1451 6.84441 12.4685 6.58565C12.792 6.32689 12.8444 5.85493 12.5857 5.53148L11.4143 6.46852ZM8.75 1C8.75 0.585786 8.41421 0.25 8 0.25C7.58579 0.25 7.25 0.585786 7.25 1H8.75ZM7.25 12C7.25 12.4142 7.58579 12.75 8 12.75C8.41421 12.75 8.75 12.4142 8.75 12H7.25ZM0.25 11V12H1.75V11H0.25ZM0.25 12C0.25 14.0711 1.92893 15.75 4 15.75V14.25C2.75736 14.25 1.75 13.2426 1.75 12H0.25ZM4 15.75H12V14.25H4V15.75ZM12 15.75C14.0711 15.75 15.75 14.0711 15.75 12H14.25C14.25 13.2426 13.2426 14.25 12 14.25V15.75ZM15.75 12V11H14.25V12H15.75ZM7.41435 0.531479L3.41435 5.53148L4.58565 6.46852L8.58565 1.46852L7.41435 0.531479ZM7.41435 1.46852L11.4143 6.46852L12.5857 5.53148L8.58565 0.531479L7.41435 1.46852ZM7.25 1V12H8.75V1H7.25Z" fill="#707070"/>
</svg>
