<svg width="27" height="30" viewBox="0 0 27 30" fill="none" xmlns="http://www.w3.org/2000/svg">
<path fill-rule="evenodd" clip-rule="evenodd" d="M18.4539 19H8.54587C5.62975 19.1448 3.0462 20.926 1.87387 23.6C0.45987 26.376 3.28187 29 6.56387 29H20.4359C23.7199 29 26.5419 26.376 25.1259 23.6C23.9535 20.926 21.37 19.1448 18.4539 19Z" stroke="#707070" stroke-width="1.5" stroke-linecap="round" stroke-linejoin="round"/>
<path fill-rule="evenodd" clip-rule="evenodd" d="M19.5 7C19.5 10.3137 16.8137 13 13.5 13C10.1863 13 7.5 10.3137 7.5 7C7.5 3.68629 10.1863 1 13.5 1C15.0913 1 16.6174 1.63214 17.7426 2.75736C18.8679 3.88258 19.5 5.4087 19.5 7Z" stroke="#707070" stroke-width="1.5" stroke-linecap="round" stroke-linejoin="round"/>
</svg>
