<svg width="130" height="81" viewBox="0 0 130 81" fill="none" xmlns="http://www.w3.org/2000/svg">
<path fill-rule="evenodd" clip-rule="evenodd" d="M116.424 43.6195C116.37 43.1617 116.62 42.7711 116.983 42.747C118.893 42.62 120.472 42.052 122.325 41.33C122.324 41.3306 122.323 41.3309 122.323 41.3309C122.323 41.3308 122.331 41.3276 122.353 41.3178L122.448 41.2758C122.526 41.2414 122.631 41.1956 122.752 41.1454C122.989 41.0464 123.299 40.925 123.587 40.8393C123.73 40.7967 123.882 40.7588 124.024 40.739C124.142 40.7225 124.343 40.7033 124.544 40.7768C124.651 40.8161 124.835 40.9096 124.983 41.1385C125.148 41.3935 125.18 41.6755 125.16 41.8847C125.142 42.0713 125.084 42.218 125.039 42.313C124.99 42.4156 124.93 42.5114 124.868 42.5994C124.001 43.824 123.04 44.9292 122.09 45.999C121.973 46.1306 121.856 46.2616 121.74 46.3922C120.903 47.3312 120.085 48.2504 119.323 49.2343C119.234 49.3496 118.809 49.9605 118.407 50.5607C118.208 50.8564 118.024 51.1371 117.897 51.3397C117.853 51.4102 117.819 51.4652 117.796 51.5051C117.723 51.7314 117.565 51.903 117.354 51.9504C117.294 51.964 117.078 52.0032 116.847 51.8134C116.576 51.5908 116.518 51.2584 116.509 51.1103C116.501 50.9686 116.524 50.8624 116.532 50.8248C116.543 50.7753 116.556 50.7365 116.565 50.7135C116.593 50.6351 116.63 50.5666 116.647 50.5352C116.691 50.4531 116.754 50.3493 116.821 50.2413C116.96 50.0195 117.155 49.724 117.355 49.4249C117.75 48.8354 118.203 48.1819 118.326 48.0224C119.118 46.9997 119.969 46.0445 120.803 45.1089C120.919 44.9785 121.035 44.8484 121.15 44.7186C121.659 44.146 122.158 43.5767 122.638 42.9935C120.852 43.6856 119.191 44.2711 117.179 44.4047C116.817 44.4288 116.479 44.0773 116.424 43.6195ZM117.763 51.5646C117.763 51.5647 117.764 51.5633 117.765 51.5604C117.764 51.5631 117.763 51.5646 117.763 51.5646Z" fill="#51A2F2" fill-opacity="0.2"/>
<path fill-rule="evenodd" clip-rule="evenodd" d="M64.3865 12.7618C66.0376 14.0157 67.448 16.3455 68.0301 18.5043C69.7968 25.0565 68.3349 32.5368 67.0272 38.2139C65.9884 42.723 64.9066 46.4793 63.2692 50.2235C64.8228 53.5331 66.7159 56.3803 68.9241 58.6184C72.7143 62.4601 77.4792 64.5561 83.1713 64.07C94.8145 63.0756 104.26 55.7751 113.714 48.4684C115.344 47.2081 116.975 45.9476 118.618 44.7192C118.918 44.4942 119.332 44.6356 119.542 45.035C119.752 45.4344 119.678 45.9406 119.378 46.1656C117.765 47.3713 116.154 48.6176 114.535 49.8705C105.094 57.1748 95.3635 64.7034 83.3875 65.7263C77.3676 66.2404 72.242 64.016 68.1491 59.8675C65.9733 57.6623 64.1028 54.9273 62.5464 51.7993C62.1477 52.6297 61.7182 53.4646 61.2525 54.312C56.2109 63.4863 48.4801 67.5331 39.1396 64.6882C29.6454 61.7965 20.4688 55.1762 12.2501 48.5499C8.78204 45.7539 5.7576 42.9596 3.04147 38.942C2.79384 38.5757 2.81245 38.0553 3.08303 37.7797C3.35362 37.5041 3.77371 37.5775 4.02134 37.9438C6.59396 41.7492 9.47213 44.423 12.8918 47.18C21.0907 53.7904 30.0909 60.2617 39.3347 63.0771C48.1076 65.7491 55.3463 61.999 60.1345 53.2859C60.7278 52.2062 61.2605 51.1478 61.745 50.0917C60.7381 47.8162 59.8848 45.3614 59.1881 42.7736C58.1071 38.7583 57.0052 33.3244 56.7043 28.0084C56.4049 22.7183 56.8901 17.3952 59.1126 13.7531C59.8289 12.5791 60.7037 11.9604 61.6628 11.8475C62.6091 11.7361 63.5506 12.127 64.3865 12.7618ZM62.474 48.418C61.6937 46.5281 61.0155 44.5087 60.4433 42.3836C59.3878 38.463 58.3195 33.1798 58.0292 28.0503C57.7375 22.895 58.24 18.0442 60.1969 14.8373C60.7503 13.9304 61.3461 13.567 61.912 13.5004C62.4906 13.4323 63.1283 13.6643 63.7791 14.1586C65.1017 15.163 66.2954 17.1163 66.775 18.8951C68.3868 24.8725 67.0697 31.8781 65.7477 37.6167C64.8107 41.6841 63.8481 45.0889 62.474 48.418Z" fill="#51A2F2" fill-opacity="0.2"/>
</svg>
