<svg width="24" height="24" viewBox="0 0 24 24" fill="none" xmlns="http://www.w3.org/2000/svg">
<path d="M11.997 5C13.6138 5 15.0983 5.55353 16.2833 6.47406L19.9205 3.00409C17.8058 1.13995 15.0377 0 11.997 0C7.3894 0 3.39368 2.59991 1.38281 6.40985L5.42725 9.60278C6.40698 6.91937 8.97449 5 11.997 5Z" fill="#F44336"/>
<path d="M23.8961 13.5023C23.9586 13.0107 24 12.5092 24 12.0005C24 11.1426 23.9063 10.3073 23.7352 9.50049H12V14.5005H18.4862C17.9615 15.8643 17.0272 17.0182 15.838 17.8199L19.8975 21.0248C22.0494 19.1359 23.522 16.4908 23.8961 13.5023Z" fill="#2196F3"/>
<path d="M5 11.9998C5 11.1564 5.15686 10.3514 5.43024 9.6026L1.3858 6.40967C0.504333 8.07983 0 9.97998 0 11.9998C0 13.9971 0.495056 15.8762 1.35822 17.5328L5.40778 14.3358C5.14844 13.6042 5 12.8203 5 11.9998Z" fill="#FFC107"/>
<path d="M11.9973 18.9995C8.95172 18.9995 6.36768 17.051 5.40503 14.3354L1.35547 17.5325C3.35651 21.373 7.36706 23.9995 11.9973 23.9995C15.025 23.9995 17.786 22.8747 19.8947 21.0238L15.8353 17.819C14.7385 18.5584 13.4257 18.9995 11.9973 18.9995Z" fill="#00B060"/>
<path opacity="0.1" d="M11.9993 23.7504C8.46765 23.7504 5.29205 22.2932 3.04688 19.9717C5.24469 22.4382 8.43579 24.0004 11.9993 24.0004C15.5299 24.0004 18.6946 22.469 20.8875 20.0411C18.6489 22.325 15.4974 23.7504 11.9993 23.7504Z" fill="black"/>
<path opacity="0.1" d="M12 14.25V14.5H18.4862L18.5875 14.25H12Z" fill="black"/>
<path d="M23.9962 12.147C23.997 12.0977 24.0017 12.0493 24.0017 11.9999C24.0017 11.986 23.9995 11.9725 23.9995 11.9585C23.9988 12.0215 23.9956 12.0837 23.9962 12.147Z" fill="#E6E6E6"/>
<path opacity="0.2" d="M12 9.50049V9.75049H23.7856C23.7698 9.66797 23.7526 9.5824 23.7352 9.50049H12Z" fill="white"/>
<path d="M23.7352 9.5H12V14.5H18.4862C17.4775 17.1216 14.9772 19 12 19C8.13403 19 5 15.866 5 12C5 8.13397 8.13403 5 12 5C13.4019 5 14.6939 5.43066 15.7885 6.14069C15.9561 6.24957 16.1289 6.35181 16.2863 6.47406L19.9235 3.00409L19.8414 2.94098C17.7369 1.11707 15.0035 0 12 0C5.37256 0 0 5.37256 0 12C0 18.6274 5.37256 24 12 24C18.1177 24 23.1555 19.4188 23.8961 13.5018C23.9586 13.0102 24 12.5087 24 12C24 11.1422 23.9063 10.3068 23.7352 9.5Z" fill="url(#paint0_linear_1575_187)"/>
<path opacity="0.1" d="M15.7885 5.8905C14.6939 5.18048 13.4019 4.74982 12 4.74982C8.13403 4.74982 5 7.88379 5 11.7498C5 11.792 5.00057 11.825 5.0013 11.867C5.06874 8.05933 8.17621 4.99982 12 4.99982C13.4019 4.99982 14.6939 5.43048 15.7885 6.1405C15.9561 6.24939 16.1289 6.35162 16.2863 6.47388L19.9235 3.00391L16.2863 6.22388C16.1289 6.10162 15.9561 5.99939 15.7885 5.8905Z" fill="black"/>
<path opacity="0.2" d="M12 0.25C14.975 0.25 17.6829 1.34839 19.7793 3.1416L19.9235 3.00409L19.8134 2.90827C17.709 1.08436 15.0035 0 12 0C5.37256 0 0 5.37256 0 12C0 12.0422 0.0058594 12.0829 0.0062866 12.125C0.0740356 5.55585 5.41473 0.25 12 0.25Z" fill="white"/>
<defs>
<linearGradient id="paint0_linear_1575_187" x1="0" y1="12" x2="24" y2="12" gradientUnits="userSpaceOnUse">
<stop stop-color="white" stop-opacity="0.2"/>
<stop offset="1" stop-color="white" stop-opacity="0"/>
</linearGradient>
</defs>
</svg>
