<svg width="24" height="24" viewBox="0 0 24 24" fill="none" xmlns="http://www.w3.org/2000/svg">
<path d="M12 24C18.6274 24 24 18.6274 24 12C24 5.37258 18.6274 0 12 0C5.37258 0 0 5.37258 0 12C0 18.6274 5.37258 24 12 24Z" fill="url(#paint0_linear_1575_200)"/>
<path d="M17.8395 6.90425L15.6973 17.7089C15.6973 17.7089 15.3973 18.4589 14.5723 18.098L9.62695 14.3058L7.82695 13.4386L4.79883 12.4214C4.79883 12.4214 4.33476 12.2574 4.28789 11.8964C4.24101 11.5355 4.81289 11.3433 4.81289 11.3433L16.8504 6.623C16.8504 6.61831 17.8395 6.18237 17.8395 6.90425Z" fill="white"/>
<path d="M9.23984 17.5876C9.23984 17.5876 9.09453 17.5735 8.91641 17.0063C8.73828 16.4392 7.82422 13.4392 7.82422 13.4392L15.0945 8.82197C15.0945 8.82197 15.5164 8.56885 15.4977 8.82197C15.4977 8.82197 15.5727 8.86885 15.3477 9.0751C15.1227 9.28604 9.63828 14.2173 9.63828 14.2173" fill="#D2E4F0"/>
<path d="M11.5234 15.7594L9.56875 17.5453C9.56875 17.5453 9.41406 17.6625 9.25 17.5875L9.625 14.2734" fill="#B5CFE4"/>
<defs>
<linearGradient id="paint0_linear_1575_200" x1="12" y1="0" x2="12" y2="23.9124" gradientUnits="userSpaceOnUse">
<stop stop-color="#41BCE7"/>
<stop offset="1" stop-color="#22A6DC"/>
</linearGradient>
</defs>
</svg>
