<svg width="24" height="24" viewBox="0 0 24 24" fill="none" xmlns="http://www.w3.org/2000/svg">
<path d="M12 24C18.6274 24 24 18.6274 24 12C24 5.37258 18.6274 0 12 0C5.37258 0 0 5.37258 0 12C0 18.6274 5.37258 24 12 24Z" fill="#4D76A1"/>
<path fill-rule="evenodd" clip-rule="evenodd" d="M11.5474 17.2635H12.4895C12.4895 17.2635 12.7755 17.2307 12.9208 17.076C13.0567 16.9307 13.052 16.6635 13.052 16.6635C13.052 16.6635 13.0333 15.3979 13.6192 15.2151C14.1958 15.0323 14.9411 16.4338 15.7286 16.9776C16.3239 17.3854 16.7739 17.2963 16.7739 17.2963L18.8786 17.2682C18.8786 17.2682 19.9802 17.2026 19.4552 16.3354C19.413 16.2651 19.1505 15.6932 17.8895 14.526C16.5724 13.3026 16.7458 13.4994 18.3349 11.3807C19.3052 10.0916 19.6895 9.30413 19.5677 8.96663C19.4505 8.64319 18.7427 8.73225 18.7427 8.73225L16.3708 8.74631C16.3708 8.74631 16.1974 8.72288 16.0661 8.79788C15.9395 8.87288 15.8552 9.051 15.8552 9.051C15.8552 9.051 15.4802 10.0494 14.9786 10.8979C13.9239 12.6885 13.502 12.7823 13.3286 12.6744C12.9255 12.4119 13.0286 11.6338 13.0286 11.076C13.0286 9.34163 13.2911 8.61506 12.5177 8.42756C12.2599 8.36663 12.0724 8.32444 11.4114 8.31975C10.5677 8.31038 9.85048 8.31975 9.44266 8.52131C9.17548 8.65256 8.96454 8.94788 9.0911 8.96194C9.24579 8.98069 9.60204 9.06038 9.78954 9.3135C10.0333 9.64163 10.0239 10.3869 10.0239 10.3869C10.0239 10.3869 10.1645 12.4307 9.69579 12.6838C9.37704 12.8573 8.93641 12.501 7.99891 10.8791C7.5161 10.0448 7.15516 9.126 7.15516 9.126C7.15516 9.126 7.08485 8.95256 6.95829 8.8635C6.8036 8.751 6.59266 8.71819 6.59266 8.71819L4.34266 8.73225C4.34266 8.73225 4.00516 8.74163 3.8786 8.88694C3.77079 9.01819 3.86922 9.29006 3.86922 9.29006C3.86922 9.29006 5.63172 13.4151 7.6286 15.4916C9.47079 17.3901 11.5474 17.2635 11.5474 17.2635Z" fill="white"/>
</svg>
