<svg width="101" height="80" viewBox="0 0 101 80" fill="none" xmlns="http://www.w3.org/2000/svg">
<mask id="mask0_1537_13673" style="mask-type:alpha" maskUnits="userSpaceOnUse" x="0" y="0" width="101" height="80">
<path d="M30.2075 19.6031C35.7155 19.6031 40.1806 15.2148 40.1806 9.80155C40.1806 4.3883 35.7155 0 30.2075 0C24.6995 0 20.2344 4.3883 20.2344 9.80155C20.2344 15.2148 24.6995 19.6031 30.2075 19.6031Z" fill="#51A2F2"/>
<path d="M70.2426 19.6031C75.7506 19.6031 80.2157 15.2148 80.2157 9.80155C80.2157 4.3883 75.7506 0 70.2426 0C64.7346 0 60.2695 4.3883 60.2695 9.80155C60.2695 15.2148 64.7346 19.6031 70.2426 19.6031Z" fill="#51A2F2"/>
<path d="M95.504 78.509C93.4545 79.6732 91.0524 80.088 88.722 79.6803C86.3915 79.2725 84.2827 78.0684 82.768 76.2806L70.4226 55.2569L69.6881 54.0081C69.4376 53.5848 69.1468 53.1858 68.8196 52.8165C67.6997 51.5872 66.1836 50.7739 64.5258 50.5132C62.868 50.2524 61.1694 50.56 59.715 51.3844L59.5635 51.4703C57.9963 52.3608 56.8215 53.7915 56.2668 55.4851C55.7122 57.1786 55.8172 59.0143 56.5616 60.636C56.6606 60.8592 56.7715 61.0772 56.8939 61.289L59.5518 65.8146C60.6354 68.0715 60.7961 70.6511 60.0006 73.0211C59.5792 74.3308 58.8875 75.541 57.9687 76.5761C57.0499 77.6113 55.9238 78.4491 54.6607 79.0372C53.3976 79.6253 52.0247 79.9512 50.6277 79.9943C49.2307 80.0375 47.8397 79.7971 46.5415 79.2881C45.2433 78.7791 44.0659 78.0124 43.0828 77.0361C42.0996 76.0597 41.332 74.8946 40.8276 73.6135C40.3233 72.3324 40.0932 70.9628 40.1518 69.5904C40.2103 68.218 40.5561 66.8721 41.1677 65.637L41.2027 65.5683L43.7557 61.226C43.8373 61.0771 43.9248 60.9339 43.9947 60.7906C44.8006 59.1596 44.9479 57.2892 44.4072 55.5557C43.8665 53.8222 42.6778 52.3543 41.0803 51.4474H41.0395C40.2096 50.9761 39.2932 50.6703 38.3429 50.5474C37.3926 50.4245 36.4269 50.4869 35.5012 50.7311C34.5754 50.9753 33.7078 51.3965 32.9478 51.9706C32.1878 52.5447 31.5505 53.2604 31.0722 54.0768L30.2737 55.4345L18.7443 74.923C17.4125 77.1905 15.2187 78.8453 12.6455 79.5232C10.0723 80.2011 7.33051 79.8466 5.02326 78.5377C2.71601 77.2288 1.0323 75.0728 0.342548 72.5438C-0.347208 70.0149 0.0134826 67.3203 1.34527 65.0527L21.513 30.7215C22.74 28.6074 24.7279 27.0215 27.0853 26.2761C27.2952 26.2074 27.505 26.1444 27.7207 26.0928C28.1198 25.9915 28.5246 25.913 28.9331 25.858C29.3771 25.7959 29.8252 25.7653 30.2737 25.7663C32.0382 25.7634 33.7722 26.2185 35.3003 27.0856C36.8284 27.9527 38.0964 29.201 38.9761 30.7043L50.3131 50.0038L61.2363 31.386L61.656 30.6699C62.5313 29.173 63.7919 27.9287 65.3112 27.062C66.8305 26.1952 68.5551 25.7365 70.3118 25.7319H70.3585C70.7755 25.7328 71.1922 25.7596 71.6058 25.8121C71.7923 25.835 71.9866 25.8637 72.1887 25.8981L72.7075 26.0069C74.0294 26.3212 75.2723 26.8968 76.3606 27.6985C77.4489 28.5001 78.3597 29.5112 79.0376 30.6699L79.4572 31.386L99.2052 65.0011C99.8676 66.1262 100.297 67.3688 100.47 68.6575C100.642 69.9462 100.554 71.2557 100.21 72.5108C99.866 73.7659 99.2733 74.9419 98.4657 75.9712C97.6581 77.0006 96.6516 77.863 95.504 78.509Z" fill="#51A2F2"/>
</mask>
<g mask="url(#mask0_1537_13673)">
<rect x="-40" y="-10" width="180" height="100" fill="url(#paint0_linear_1537_13673)"/>
</g>
<defs>
<linearGradient id="paint0_linear_1537_13673" x1="-40" y1="90" x2="126.688" y2="-28.6946" gradientUnits="userSpaceOnUse">
<stop stop-color="#50F2C4"/>
<stop offset="0.396745" stop-color="#26D0E3"/>
<stop offset="1" stop-color="#757AFF"/>
</linearGradient>
</defs>
</svg>
