<svg width="39" height="24" viewBox="0 0 39 24" fill="none" xmlns="http://www.w3.org/2000/svg">
<path fill-rule="evenodd" clip-rule="evenodd" d="M37.699 2.44029C37.9659 1.56013 37.699 0.912109 36.4209 0.912109H32.2009C31.127 0.912109 30.6318 1.47147 30.3634 2.08887C30.3634 2.08887 28.2172 7.24082 25.1771 10.5873C24.1933 11.5578 23.7463 11.8657 23.2094 11.8657C22.9409 11.8657 22.5374 11.5578 22.5374 10.676V2.44029C22.5374 1.38281 22.2416 0.912109 21.3478 0.912109H14.7114C14.0411 0.912109 13.6375 1.40216 13.6375 1.86803C13.6375 2.86908 15.1584 3.10121 15.3143 5.91898V12.0414C15.3143 13.3842 15.0683 13.6276 14.5314 13.6276C13.1006 13.6276 9.62008 8.45143 7.55427 2.52895C7.15397 1.37637 6.74884 0.912109 5.67012 0.912109H1.44687C0.241145 0.912109 0 1.47147 0 2.08887C0 3.18825 1.43079 8.64971 6.66364 15.8731C10.1522 20.8058 15.0635 23.4801 19.5376 23.4801C22.2207 23.4801 22.5519 22.8869 22.5519 21.8633V18.1347C22.5519 16.9467 22.8059 16.7097 23.6563 16.7097C24.2833 16.7097 25.3556 17.0192 27.8603 19.3969C30.7219 22.2163 31.1929 23.4801 32.8037 23.4801H37.0238C38.2295 23.4801 38.834 22.8869 38.4867 21.7134C38.1041 20.5463 36.7376 18.8521 34.9258 16.8419C33.942 15.6974 32.4661 14.4642 32.0176 13.8468C31.3922 13.0553 31.5707 12.7023 32.0176 11.9978C32.0176 11.9978 37.162 4.86312 37.6974 2.44029H37.699Z" fill="#D4E8FC"/>
</svg>
